<?xml version="1.0" encoding="utf-8"?>
<!-- Generator: Adobe Illustrator 21.1.0, SVG Export Plug-In . SVG Version: 6.00 Build 0)  -->
<svg version="1.1" id="Camada_1" xmlns="http://www.w3.org/2000/svg" xmlns:xlink="http://www.w3.org/1999/xlink" x="0px" y="0px"
	 viewBox="0 0 612 792" style="enable-background:new 0 0 612 792;" xml:space="preserve">
<style type="text/css">
	.st0{fill:#C17E4B;}
	.st1{fill:#F4A494;}
	.st2{opacity:0.3;fill:#FFFFFF;}
	.st3{fill:#CECECD;}
	.st4{fill:#8C4B3E;}
	.st5{fill:#303031;}
	.st6{fill:#FFFFFF;}
</style>
<g>
	<g>
		<path class="st0" d="M325.6,496.1c-12.2,4.1-24.5,4.6-35-3.8c-10.6-8.4-11.6-21.2-9.8-33.6c0-0.1,0-0.3,0-0.4
			c3.6-6.5,6.6-12.2,13.1-16.7c7.3-5.1,16.5-5.4,24.8-8c0.6-0.2,0.4-1-0.1-1c-9.6-0.6-19.4,1.7-27.3,7.3c-3,2.1-6,5.1-8.4,8.5
			c0-0.1,0-0.2,0-0.3c0.3-5.2-3.3-8.9-3.8-14c-1.3-12.6,15.6-21.7,25.5-24.5c24.4-6.7,47.3,11.6,53.9,34.1c3.5,11.9,2.9,26-5,35.9
			C346.9,488.4,335.7,492.7,325.6,496.1z"/>
		<path class="st1" d="M347.9,443.8c-6-9-16.2-10.7-26.2-10.5c-10.9,0.2-21.9,2.1-30.2,9.8c-10.9,10.3-11.1,28-2.2,39
			c1.5,4.4,4.1,8.4,7.8,11c8.8,6,20.1,4,29.3,0.1C345.2,485.2,361,463.5,347.9,443.8z"/>
		<path class="st2" d="M346.2,437.6c-11.6-8.2-29.3-6.5-41.9-1.6c-9.7,3.7-25.8,14.2-24.2,26.5c0,0,0,0,0,0c-1.2,0.8-0.8,2.7,0,3.7
			c0.3,0.3,0.6,0.4,0.9,0.4c0.7,0.8,1.7,1.5,2.8,1.5c0.9,0.5,1.9,1.2,2.9,1.2c0,0,0,0,0.1,0c0,0,0.1,0,0.1,0.1
			c0.3,0.1,0.8-0.1,0.7-0.5c-0.3-1.1-1.2-2-1.8-3c-0.2-0.3-0.3-0.5-0.5-0.8c-0.1-0.2-0.1-0.5-0.2-0.7c-0.2-0.6-0.3-1.2-0.4-1.8
			c-0.4-3.4,0.9-6,3.4-8.7c3.9-4.1,9-7.2,14-9.9c5.1-2.7,10.7-4.6,16.3-5.9c3.5-0.8,7-0.9,10.6-1.3c5.4,0.5,10.8,1.7,16.5,3
			C346.6,439.8,347.1,438.3,346.2,437.6z"/>
		<path class="st3" d="M336,492.3c-0.5-0.9-1-1.8-1.6-2.6c-0.5-0.8-0.9-1.7-1.3-2.6c-0.6-1.5-0.8-3.2-1.6-4.6
			c-0.2-0.3-0.7-0.4-0.9,0c-0.5,1.2-0.5,2.7-0.1,4.2c0-0.1-0.1-0.1-0.1-0.2c-0.3-0.6-1.2-0.3-1.3,0.3c0,0,0,0.1,0,0.1
			c0,0-0.1,0-0.1,0.1c-0.2-0.5-0.4-0.9-0.8-1.2c-0.2-0.2-0.6-0.2-0.8,0c-0.6,0.7-0.8,1.6-0.8,2.6c-0.1,0-0.1,0-0.2,0.1
			c-0.1-0.2-0.2-0.4-0.3-0.7c-0.2-0.5-0.9-0.4-1.2,0c-0.2,0.3-0.3,0.7-0.4,1c0,0,0,0,0-0.1c-0.1-0.7-1.3-0.7-1.4,0
			c0,0.2-0.1,0.4-0.1,0.6c-0.3-0.1-0.6-0.1-0.8,0.2c-0.1,0.2-0.3,0.5-0.4,0.7c-0.3-0.7-1.1-0.7-1.4,0c0,0.1-0.1,0.2-0.1,0.2
			c0,0,0-0.1,0-0.1c-0.1-0.6-0.8-0.5-1.1-0.1c-0.3,0.4-0.6,0.9-0.8,1.4c0-0.3,0-0.7-0.1-1c-0.1-0.5-0.8-0.5-1-0.1
			c-0.4,0.6-0.8,1.4-1,2.3c-0.1-0.3-0.2-0.6-0.3-0.9c-0.1-0.3-0.5-0.4-0.7-0.3c0-0.1-0.1-0.1-0.1-0.2c-0.3-0.4-0.8-0.4-1.1,0
			c-0.3,0.4-0.4,0.8-0.5,1.3c-0.1-0.2-0.1-0.4-0.2-0.5c-0.2-0.6-1.2-0.7-1.4,0c-0.1,0.4-0.1,0.8-0.2,1.3c-0.1-0.5-0.2-1-0.3-1.5
			c-0.1-0.6-0.9-0.5-1.1,0c-0.4,1.2-0.6,2.5-0.6,3.8c-0.1-0.3-0.2-0.5-0.3-0.8c-0.1-0.3-0.4-0.4-0.7-0.3c-0.2-0.5-0.4-1.1-0.7-1.5
			c-0.3-0.4-0.8-0.3-1,0.1c-0.1,0.2-0.1,0.3-0.1,0.5c0-0.1-0.1-0.2-0.1-0.3c-0.2-0.5-0.9-0.3-1,0.1c0,0.1-0.1,0.3-0.1,0.4
			c-0.1-0.4-0.3-0.7-0.5-1.1c-0.2-0.3-0.8-0.4-1,0c-0.2-0.6-0.4-1.2-0.6-1.7c-0.2-0.4-0.7-0.2-0.8,0.1c-0.1,0.2-0.1,0.4-0.1,0.5
			c-0.3-0.4-0.9-0.4-1.1,0.2c0,0.1-0.1,0.3-0.1,0.4c-0.2-0.7-0.3-1.3-0.5-1.9c-0.1-0.3-0.4-0.4-0.6-0.4c-0.1-0.7-0.2-1.3-0.6-1.9
			c-0.2-0.3-0.6-0.3-0.8,0c-0.2,0.3-0.3,0.6-0.4,0.9c0-0.2-0.1-0.3-0.1-0.5c-0.1-0.6-0.9-0.6-1.2-0.2c0-0.6-0.1-1.2-0.3-1.8
			c-0.2-0.7-1.1-0.6-1.3,0c-0.2,0.6-0.4,1.3-0.5,2c-0.1,0-0.1,0-0.2,0.1c0.2-1.3,0.4-2.6,0.1-3.7c-0.1-0.4-0.6-0.5-0.9-0.2
			c-0.8,0.8-1.2,1.8-1.4,2.9c-0.2-0.1-0.5-0.1-0.7,0.2c-0.7,1.2-0.8,2.7-0.8,4c0,1.1,0,2.6,0.7,3.4c0,0.2,0.1,0.3,0.1,0.5
			c0,0,0,0,0,0c0,0,0,0.1,0,0.1c0,0,0,0,0,0c0.2,0.5,1.1,0.9,1.4,0.2c0.2-0.3,0.3-0.7,0.4-1c0,0.4,0.1,0.9,0.3,1.3c0,0,0,0,0,0
			c0.1,0.4,0.5,0.6,0.9,0.5c0.2,0.5,0.9,0.6,1.3,0.1c0,0.2,0.1,0.5,0.1,0.7c0,0,0,0,0,0c0,0,0,0,0,0c0,0.1,0,0.2,0,0.3c0,0,0,0,0,0
			c0.2,0.8,1.3,1,1.8,0.5c0.4,0.3,1,0.3,1.4,0c0.1,0.3,0.1,0.6,0.2,1c0,0,0,0,0,0c0.2,0.6,0.8,0.8,1.3,0.6c0.3,0.6,1.1,0.8,1.6,0.5
			c0.4,0.6,1.2,0.6,1.7,0.3c0.4,0.4,1,0.6,1.4,0.3c0.3,0.7,1.4,0.6,1.9,0c0.5,0.4,1.3,0.3,1.7-0.3c0.4,0,0.8-0.2,0.9-0.5
			c0.4,0.6,1.4,0.5,1.7-0.1c0.3,1.2,2.2,1.2,2.2-0.2c0-0.2,0-0.4,0-0.6c0.4,0.1,1,0,1.2-0.4c0.2,0.1,0.4,0.1,0.5,0
			c0,0.2,0.1,0.4,0.1,0.5c0,0,0,0,0,0c0.3,0.7,1.5,1,1.7,0c0.1-0.4,0.1-0.7,0.2-1.1c0,0.1,0,0.3,0.1,0.4c0,0,0,0,0,0
			c0.2,0.9,1.7,1,2,0.1c0.6,0.6,1.8,0.2,1.9-0.8c0-0.1,0-0.2,0-0.3c0.2,0.1,0.5,0.1,0.7,0c0.4,0.9,1.6,0.9,2,0.1
			c0.6,0.2,1.3,0,1.5-0.8c0-0.2,0.1-0.5,0.1-0.7c0.3,0.1,0.6,0.1,0.9-0.1c0.6,0.6,1.6,0.6,2-0.2c0.8,0.3,1.9-0.2,1.8-1.4
			c0.5,0,1-0.4,1.1-1c0.1,0,0.2-0.1,0.3-0.1c0.2,0.1,0.3,0.1,0.5,0.1c0,0,0,0.1,0,0.1c0,0,0,0,0,0c0,0.1,0.1,0.2,0.1,0.2
			c0,0,0,0,0,0c0.4,0.7,1.3,0.7,1.8,0.2c0.1,0,0.1,0.1,0.2,0.1c0.3,0.1,0.5,0,0.5-0.2c0,0,0,0,0,0c0.1-0.3,0-0.5,0-0.8
			C336.1,493.2,336.3,492.7,336,492.3z"/>
		<path class="st3" d="M332.4,416.7c-0.6,0.6-1.3,1.2-1.9,1.8c0,0,0,0,0,0.1l-0.4-0.2c-0.7-0.3-1.6,0-1.9,0.6
			c-0.6-0.2-1.1,0.2-1.4,0.6c-0.1,0-0.2-0.1-0.3-0.1c-0.9-0.3-1.4,0.3-1.5,1c-0.6,0-1,0.4-1.1,0.9c-0.1,0-0.2-0.1-0.3-0.1
			c-0.7-0.2-1.2,0.2-1.5,0.7c-0.3,0.1-0.6,0.3-0.7,0.6c0,0,0,0,0,0c-0.8-0.2-1.4,0.4-1.6,1.1c-0.4,0-0.8-0.1-1.2-0.1
			c-0.4,0-0.7,0.2-0.8,0.5c-0.4,0-0.9,0-1.3,0c-0.7,0-1,0.7-0.7,1.2c-0.1,0-0.3,0-0.4,0c-0.5,0-0.8,0.3-0.8,0.7
			c-2,0.2-4,0.5-5.8,1.2c-0.1,0-0.2,0-0.3,0.1c0,0-0.1,0-0.1,0c-0.5-0.1-1,0.5-0.7,0.9c-0.6-0.1-1.3-0.1-1.9-0.2
			c-0.6-0.1-0.9,0.4-0.9,0.8c-0.1,0.1-0.2,0.2-0.3,0.4c-0.5-0.1-1-0.1-1.4-0.2c-0.4-0.1-0.7,0.1-0.8,0.4c-0.6-0.1-1.3-0.2-1.9-0.4
			c-0.4-0.1-0.8,0.2-1,0.5c-0.3-0.1-0.6-0.1-0.8-0.2c-0.5-0.1-0.9,0.2-1.1,0.6c-0.3-0.1-0.7-0.1-1-0.2c-0.5-0.1-0.8,0.1-1,0.4
			c-0.6-0.1-1.1-0.2-1.7-0.4c-0.5-0.1-0.9,0.3-1,0.7c-0.7-0.2-1.3-0.3-2-0.6c-0.6-0.2-1.1,0.3-1.1,0.9c-0.4-0.1-0.8-0.2-1.2-0.3
			c-0.5-0.1-0.9,0.3-1,0.7c-0.2,0-0.4-0.1-0.6-0.1c-0.4-0.1-0.7,0.1-0.9,0.4c-0.2-0.1-0.5-0.2-0.7-0.3c-0.7-0.3-1.2,0.3-1.2,0.8
			c-0.1,0.1-0.1,0.2-0.1,0.3c0,0-0.1,0.1-0.1,0.1c-0.5,0.2-0.8,0.8-0.5,1.4c0.3,0.5,0.6,0.9,1.1,1.1c0.4,0.2,0.9-0.2,1-0.6
			c0.1,0,0.2-0.1,0.2-0.2c0.5,0.2,1,0.4,1.4,0.6c0.4,0.2,0.8-0.1,0.9-0.5c0.1,0,0.1,0,0.2,0.1c0.3,0.1,0.6-0.1,0.8-0.3
			c0,0,0.1,0,0.1,0c0.4,0.2,0.8-0.1,0.9-0.5c0.5,0.2,1.1,0.3,1.6,0.5c0.6,0.2,1.1-0.3,1.1-0.8c0.4,0.1,0.8,0.2,1.2,0.3
			c0.7,0.2,1.2-0.5,1.2-1c0.7,0.2,1.3,0.4,2,0.5c0.6,0.1,1-0.3,1.1-0.8c0.3,0.1,0.7,0.1,1,0.2c0.4,0.1,0.6,0,0.8-0.2
			c0.4,0.1,0.8,0.2,1.2,0.3c0.5,0.1,0.9-0.2,1.1-0.6c0.4,0.1,0.7,0.1,1.1,0.2c0.6,0.1,1-0.2,1.1-0.7c0.7,0.1,1.5,0.3,2.2,0.4
			c0.5,0.1,0.8-0.2,1-0.5c0.3,0.1,0.6,0.1,0.9,0.2c0.5,0.1,0.9-0.1,1.1-0.4c0,0,0,0,0,0c0.6,0.1,1.1-0.3,1.2-0.8
			c0.7,0.1,1.5,0.2,2.2,0.3c0.6,0.1,0.9-0.4,0.9-0.8c1,0.3,2,0.5,3,0.7c0.7,0.1,1.1-0.3,1.2-0.8c0.4,0,0.7,0,1,0
			c0.3,0,0.6-0.3,0.7-0.5c0.2,0,0.4,0,0.6,0c0.2,0,0.4-0.1,0.6-0.2c0.7,0.1,1.4,0.3,2.1,0.4c1,0.2,1.5-0.6,1.4-1.4
			c0.5-0.1,0.8-0.6,0.9-1.1c0.4,0,0.8-0.2,1-0.5c0.7,0.1,1.3-0.4,1.5-1.1c0,0,0,0,0,0c0.7,0.2,1.2-0.1,1.4-0.6
			c0.2,0.1,0.3,0.1,0.5,0.2c1.3,0.4,1.9-1.1,1.3-2c0.2-0.3,0.3-0.7,0.2-1c0,0,0,0,0,0c1,0.3,2.1-0.4,1.8-1.5
			c0.1-0.7,0.5-1.3,1.2-1.7C335.3,417.3,333.6,415.6,332.4,416.7z"/>
		<path class="st3" d="M361.8,452.7c0-2,0.1-4.3-1.3-5.8c-0.3-0.3-1-0.3-1.2,0.2c0,0.1,0,0.1-0.1,0.2c0,0-0.1,0-0.1,0
			c-0.4,0.2-0.7,0.3-1,0.6c-0.2-0.1-0.4-0.1-0.5,0.1c-0.1,0.2-0.2,0.4-0.2,0.6c-0.3,0.1-0.6,0.4-0.7,0.8c-0.1,0.5-0.1,0.9,0.1,1.4
			c0,0,0,0.1,0,0.1c-0.1-0.5-0.2-1-0.3-1.5c-0.1-0.5-0.8-0.4-0.9,0c0,0,0,0,0,0c0,0.1-0.1,0.3-0.1,0.4c0,0-0.1,0-0.1,0
			c0-0.1-0.1-0.2-0.1-0.2c-0.2-0.5-1.1-0.4-1.2,0.2c0,0.1,0,0.1,0,0.2c-0.1-0.3-0.2-0.7-0.3-1c-0.2-0.5-0.8-0.5-1,0
			c-0.2,0.4-0.3,0.9-0.4,1.3c-0.3-0.2-0.7,0-0.9,0.3c-0.2,0.5-0.4,1-0.5,1.6c-0.1-0.3-0.2-0.7-0.4-1c-0.2-0.5-1.1-0.7-1.2,0
			c-0.1,0.7-0.2,1.5-0.2,2.3c-0.3-0.2-0.7-0.1-0.9,0.2c0,0.1-0.1,0.2-0.1,0.3c-0.1-0.2-0.1-0.4-0.2-0.5c-0.2-0.3-0.8-0.4-1,0
			c-0.1,0.3-0.2,0.7-0.3,1c-0.2-0.6-0.8-0.6-1.2-0.3c-0.3-0.5-1.1-0.8-1.4-0.1c-0.3,0.6-0.5,1.2-0.7,1.9c-0.1,0-0.2,0-0.3,0.1
			c-0.5,0.4-0.8,1.1-1,1.8c-0.1-0.5-0.8-0.6-1.1-0.1c-0.3,0.5-0.5,1-0.7,1.5c0,0,0-0.1,0-0.1c-0.1-0.4-0.8-0.6-1-0.1
			c-0.3,0.6-0.5,1.2-0.7,1.9c-0.2,0-0.3,0.1-0.4,0.2c-0.9,1.7-1.2,3.7-2,5.4c-0.2,0.5-1.5,2.6-0.1,2.8c1.1,0.1,1.7-1.1,2.2-2.1
			c0.4,0.1,0.8,0,1-0.4c0.1-0.3,0.3-0.5,0.4-0.8c0.4,0.4,1.1,0.6,1.4-0.1c0.2-0.5,0.4-1.1,0.6-1.7c0.4,0.2,0.8,0.1,1.1-0.3
			c0.2-0.3,0.4-0.7,0.5-1.1c0,0,0,0,0,0l0,0c0.2,0.8,1.3,0.9,1.7,0c0.1-0.3,0.2-0.6,0.3-1c0.5,0.3,1.3,0.2,1.6-0.5
			c0-0.1,0.1-0.2,0.1-0.3c0,0.1,0,0.1,0.1,0.2c0,0,0,0,0,0c0.4,0.6,1.3,0.6,1.6-0.2c0.1-0.3,0.2-0.6,0.2-1c0.4,0.1,0.9,0,1.1-0.4
			c0,0,0-0.1,0-0.1c0.3,1.2,1.9,0.8,2-0.3c0-0.1,0-0.3,0-0.4c0.2,0,0.4-0.1,0.5-0.1c0.5,0.6,1.7,0.5,1.8-0.4c0,0,0,0,0-0.1
			c0.4,0.2,0.7,0.4,1.2,0.6c0.3,0.1,0.7,0.2,1,0.2c0.3,0,0.5,0,0.8,0c0.2,0,0.3,0.1,0.4,0.1c0,0.1,0.1,0.2,0.1,0.2
			c0.4,0.6,1.2,0.6,1.6,0.1c0.3,0.6,1.3,0.9,1.6,0.1C362,457.3,361.9,455,361.8,452.7z"/>
		<path class="st4" d="M320.5,405.6c-11.5-1.6-23.9,1.8-33.1,9c-4.3,3.4-8.6,7.7-10.4,13.1c-2,5.9-0.6,10.3,2,15.6
			c3.6,7.5-5.5,13.6-2.5,21.2c0,0.1,0.1,0.1,0.1,0.1c-1.8,8.6,0.9,18.4,6.1,25c7.5,9.6,19,14.3,31.1,13.2
			c12.2-1.1,25.8-6.8,35.7-13.9c10.4-7.5,14.9-18.7,15-31.3C364.7,432.2,345.9,409.1,320.5,405.6z M325.6,496.1
			c-12.2,4.1-24.5,4.6-35-3.8c-10.6-8.4-11.6-21.2-9.8-33.6c0-0.1,0-0.3,0-0.4c3.6-6.5,6.6-12.2,13.1-16.7c7.3-5.1,16.5-5.4,24.8-8
			c0.6-0.2,0.4-1-0.1-1c-9.6-0.6-19.4,1.7-27.3,7.3c-3,2.1-6,5.1-8.4,8.5c0-0.1,0-0.2,0-0.3c0.3-5.2-3.3-8.9-3.8-14
			c-1.3-12.6,15.6-21.7,25.5-24.5c24.4-6.7,47.3,11.6,53.9,34.1c3.5,11.9,2.9,26-5,35.9C346.9,488.4,335.7,492.7,325.6,496.1z"/>
	</g>
	<g>
		<path class="st0" d="M271.6,449.9c-8.1,11.7-15.6,23-31.1,23.9c-3.1,0.2-6.2-0.3-9-1.6c-5.4-2.5-3.9-8.8-2.1-13.1
			c2.1-5,5.2-9.6,8.6-13.7c5.8-7.2,12.9-12.1,20.8-16.3c7.3-1.1,15.5-5,20.8,2.5C283.3,436.7,274.5,445.8,271.6,449.9z"/>
		<path class="st2" d="M258.8,429c-7.9,4.2-15,9.2-20.8,16.3c-2.8,3.5-5.5,7.3-7.5,11.4c-0.4,0.8-0.7,1.5-1,2.3
			c-0.2,0.5-0.4,0.9-0.6,1.4c-1.3,3.6-2,7.9,0.9,10.5c0.8-2.8,1.4-5.6,2.4-8.2c2.3-5.8,5.4-11.2,9-16.3c3.3-4.7,7.4-8.8,11.8-12.5
			c2.2-1.9,4.7-3.6,7.2-5.2C259.7,428.9,259.2,429,258.8,429z"/>
		<path class="st3" d="M281.1,435.6c1.3-3-1.6-5.2-4.1-4.2c-0.6-0.3-1.2-0.4-1.8-0.4c-0.6,0-1,0.8-0.5,1.3c0.3,0.3,0.7,0.5,1.1,0.7
			c0.2,0.3,0.5,0.6,0.9,0.7c0.5,0,0.7,0,1.2-0.2c0,0,0,0,0,0c0,0.1,0,0.1,0,0.2c-0.2,0-0.5,0.1-0.6,0.3c-0.1,0.2-0.1,0.4-0.2,0.7
			c0,0,0,0,0-0.1c-0.2-0.2-0.6-0.2-0.7,0c-0.1,0.1-0.1,0.2-0.2,0.3c-0.3-0.1-0.6-0.1-0.8,0.2c-0.2,0.4-0.4,0.9-0.5,1.4
			c-0.2,0-0.5,0.1-0.6,0.3c-0.2,0.4-0.3,0.8-0.4,1.2c-0.2-0.1-0.5,0-0.7,0.3c-0.1,0.4-0.3,0.9-0.4,1.4c0-0.1-0.1-0.2-0.1-0.4
			c-0.2-0.4-0.7-0.5-0.9,0c-0.2,0.7-0.3,1.4-0.4,2.2c-0.1,0-0.2,0.1-0.3,0.2c-0.1,0.1-0.1,0.3-0.1,0.4c0,0,0,0,0,0
			c-0.2-0.5-0.9-0.3-1,0.1c-0.2,0.5-0.3,1.1-0.4,1.7c-0.3-0.2-0.7-0.1-0.8,0.3c-0.1-0.2-0.2-0.4-0.3-0.6c-0.2-0.4-0.8-0.3-1,0.1
			c0,0.2-0.1,0.3-0.1,0.5c-0.1-0.2-0.1-0.4-0.1-0.6c-0.1-0.2-0.5-0.3-0.5,0c-0.1,0.8-0.2,1.7-0.3,2.6c-0.1-0.1-0.1-0.3-0.2-0.4
			c-0.2-0.3-0.7-0.2-0.7,0.2c0.1,0.8,0.2,1.6,0.4,2.5c-0.1-0.3-0.1-0.6-0.2-0.9c-0.1-0.5-0.9-0.4-0.9,0.1c0,0.5,0,0.9,0,1.4
			c-0.3-0.9-0.7-1.8-1.2-2.6c-0.2-0.3-0.6-0.1-0.6,0.2c0,0.6,0,1.1,0,1.7c-0.2-0.2-0.7-0.1-0.8,0.2c0,0.2-0.1,0.4-0.1,0.6
			c-0.2-0.5-0.5-1.1-0.9-1.5c-0.2-0.3-0.6,0-0.7,0.3c0,0.4,0,0.9,0.1,1.3c-0.3-0.1-0.5,0-0.6,0.3c0,0.1,0,0.1,0,0.2
			c0,0,0-0.1-0.1-0.1c-0.2-0.2-0.3-0.2-0.5-0.1c0-0.1-0.1-0.2-0.1-0.2c-0.2-0.7-1.4-0.6-1.4,0.2c0,0,0,0,0,0c0,0,0,0,0,0
			c-0.1,0-0.1,0-0.2,0c-0.3,0.1-0.4,0.3-0.5,0.5c-0.2-0.1-0.5,0.1-0.6,0.3c-0.4,1.1,0.1,2.9,0.6,4c0.3,0.8,1.6,0.4,1.6-0.4
			c0,0,0-0.1,0-0.1c0.1,0,0.1-0.1,0.1-0.2c0,0,0,0,0,0c0.2,0.6,0.5,1.2,1.1,1.5c0.1,0.1,0.2,0,0.3,0c0,0.1,0.1,0.1,0.1,0.2
			c0,0,0,0,0,0c0.2,0.3,0.6,0.4,0.9,0.3c0.2,0.6,0.4,1.2,0.7,1.7c0,0,0,0,0,0c0.3,0.4,0.8,0.5,1.2,0.3c0,0.1,0.1,0.1,0.1,0.2
			c0,0,0,0,0,0c0.1,0.2,0.4,0.3,0.6,0.3c0.1,0.2,0.3,0.3,0.6,0.4c0.1,0.2,0.1,0.3,0.2,0.5c0.1,0.5,0.5,0.6,0.9,0.6
			c0.3,0.9,1.6,0.5,1.5-0.5c-0.1-0.5-0.2-1-0.2-1.5c0.3,0.1,0.7,0.1,1-0.1c0.1-0.1,0.3-0.1,0.4-0.3c0.1-0.1,0.2-0.3,0.3-0.5
			c0.3-0.5,0.7-1,1-1.5c0.2-0.1,0.4-0.2,0.5-0.4c0.3-0.5,0.6-1,0.6-1.5c0,0,0-0.1,0-0.1c0.3,0,0.6-0.2,0.7-0.5
			c0.2-0.5,0.3-1,0.4-1.5c0.4,0,0.7-0.2,0.8-0.6c0.1-0.3,0.2-0.7,0.2-1c0.5,0,1-0.3,1.1-0.9c0-0.2,0-0.4,0.1-0.6
			c0.4,0,0.8-0.2,0.9-0.7c0.1-0.4,0.2-0.9,0.2-1.3c0.3-0.1,0.6-0.3,0.7-0.6c0.1-0.2,0.1-0.4,0.1-0.6c0.4,0,0.8-0.2,0.9-0.7
			c0,0,0-0.1,0-0.1c0.4,0,0.8-0.2,0.9-0.7c0-0.2,0.1-0.3,0.1-0.5c0.5,0.1,1-0.1,1.1-0.7c0-0.3,0.1-0.7,0.1-1c0.5,0,0.9-0.3,1-0.9
			c0-0.2,0-0.4,0-0.6c0.6,0.1,1.2-0.3,1.1-1c-0.1-0.8-0.1-1.6-0.2-2.3C281,435.7,281,435.7,281.1,435.6z"/>
		<path class="st4" d="M279.3,426.6c-4.8-4.1-12-3.5-17.7-1.3c-13.3,4.5-24.6,15.3-31.6,27.1c-3.4,5.6-7.1,12.9-3.2,19.1
			c3.3,5.2,12,5.5,17.3,4.7c18.2-2.9,26.7-19.9,36.4-33.6C284.4,436.9,284.8,431.3,279.3,426.6z M271.6,449.9
			c-8.1,11.7-15.6,23-31.1,23.9c-3.1,0.2-6.2-0.3-9-1.6c-5.4-2.5-3.9-8.8-2.1-13.1c2.1-5,5.2-9.6,8.6-13.7
			c5.8-7.2,12.9-12.1,20.8-16.3c7.3-1.1,15.5-5,20.8,2.5C283.3,436.7,274.5,445.8,271.6,449.9z"/>
	</g>
	<g>
		<path class="st0" d="M337.9,412.9c2.2-8.9,11.3-8.4,18.4-10c8.9,1,17.3,2.9,25.4,7.4c4.7,2.6,9.3,5.7,13.1,9.6
			c3.3,3.3,7,8.6,2.9,12.9c-2.1,2.3-4.8,3.9-7.7,4.8c-14.7,4.9-25.9-2.8-37.7-10.6C348,424.3,336.4,419.1,337.9,412.9z"/>
		<path class="st2" d="M395.9,421.1c-0.4-0.4-0.8-0.9-1.2-1.3c-3.8-3.8-8.4-6.9-13.1-9.6c-8-4.5-16.5-6.4-25.4-7.4
			c-2.9,0.7-6.2,1-9.2,1.7c-0.7,0.3-1.3,0.7-1.8,1.2c-1,0.2-1.9,0.4-2.8,0.6c-0.8,0.5-1.5,1-2.1,1.7c0.1,0.4,0.3,0.7,0.8,0.8
			c4.6,0.7,9.2,0.4,13.9,0.6c6,0.3,12,1.3,17.9,2.7c5.9,1.4,11.6,3.4,17.2,5.8C392.1,418.9,394,420,395.9,421.1z"/>
		<path class="st3" d="M394.4,435.5c-0.2,0-0.4,0-0.6,0c-0.1-0.3-0.4-0.5-0.8-0.5c-1.6,0.1-2.9,0.4-4.3,0.8c-0.4-0.5-1-0.7-1.6-0.4
			c-0.8,0.4-1.6,0.8-2.5,1.1c-0.4-0.3-0.9-0.5-1.5-0.2c-0.1,0.1-0.2,0.1-0.4,0.2c-0.1-0.4-0.4-0.8-0.9-0.8c-1-0.1-2.1,0.1-3.1,0.2
			c-0.1-0.1-0.3-0.1-0.5-0.1c-0.6,0-1.2-0.1-1.8-0.1c-0.1-0.1-0.3-0.2-0.5-0.2c-0.1,0-0.2,0-0.3,0c0,0,0,0,0,0
			c0.1-0.1,0.3-0.1,0.4-0.2c0.7-0.4,0.1-1.4-0.5-1.2c-0.9,0.2-1.8,0.5-2.7,0.8c-0.1-0.1-0.1-0.2-0.3-0.3c-0.1-0.1-0.3-0.1-0.4-0.2
			c0.2-0.5-0.1-1.1-0.7-1.2c-0.6,0-1.3,0-1.9,0c0,0,0,0,0,0c0.5-0.1,0.7-0.8,0.2-1c-0.8-0.4-1.7-0.4-2.6-0.4c-0.3,0-0.6,0-1,0
			c-0.1-0.1-0.1-0.1-0.2-0.2c0.9,0.1,1.8,0.1,2.3-0.6c0.3-0.3,0.2-0.7,0-1c-0.7-0.8-1.8-0.6-2.8-0.7c-0.6-0.1-1.3-0.2-1.9-0.3
			c0.5-0.1,0.6-0.9,0.1-1.1c-2.5-1.1-5.3-1.6-8-2.3c-0.4-0.2-0.8-0.4-1.2-0.5c0-0.4-0.1-0.8-0.7-1c-0.4-0.1-0.7-0.2-1.1-0.3
			c0-0.3-0.2-0.5-0.5-0.6c-0.4-0.1-0.9-0.3-1.3-0.4c0.4-0.3,0.3-1.1-0.3-1.2c-0.5-0.2-1.1-0.3-1.6-0.4c0-0.2-0.2-0.4-0.5-0.5
			c-0.7-0.2-1.4-0.4-2.2-0.5c0.1-0.3,0-0.8-0.4-0.9c0,0-0.1,0-0.1,0c0.1-0.1,0.2-0.3,0.2-0.5c0-0.8-1.3-0.9-2.6-0.7
			c-0.1-0.3-0.4-0.6-0.8-0.7c-0.9-0.1-1.8-0.2-2.7-0.3c-0.1,0-0.1,0-0.2,0c-0.1,0-0.1-0.1-0.2-0.1c-0.1-0.1-0.2-0.1-0.3,0
			c-0.2-0.1-0.5-0.1-0.7-0.2c-0.5-0.2-0.8,0.5-0.5,0.8c-0.4,0.4-0.4,1.2,0.3,1.4c0.2,0.1,0.5,0.1,0.7,0.2c0.1,0.2,0.2,0.3,0.4,0.4
			c0.1,0,0.1,0,0.2,0c0,0.4,0.3,0.9,0.8,0.9c0.2,0,0.5,0,0.7,0c0,0,0.1,0,0.1,0c0.2,0,0.3,0.1,0.5,0.1c-0.1,0.3,0.1,0.8,0.4,0.9
			c0.1,0,0.2,0,0.3,0.1c1.3,1.9,3.4,3.1,5.5,4.1c1.6,0.9,3.4,1.8,5.2,2.4c0,0.1,0.1,0.3,0.2,0.4c0.9,0.7,1.8,1.2,2.7,1.8
			c0.4,0.3,0.9,0.6,1.3,1c1,1.1,2.3,2,3.5,2.8c1.4,0.9,3.1,2.1,4.8,2.7c2.1,1.8,5.2,3.1,8.1,3.3c4.4,1.2,10,1.4,13.2-1.1
			c0,0,0,0,0,0c0.3,0.2,0.7,0.3,1.1,0.2c1.6-0.5,2.9-0.9,4.3-1.6c0.6,0.2,1.4,0.1,2-0.1C395.5,436.8,395.2,435.5,394.4,435.5z"/>
		<path class="st4" d="M341.2,423.5c14.1,9.2,28.3,21.7,46.3,17.7c5.2-1.2,13.2-4.7,14.4-10.7c1.3-7.2-4.9-12.6-10.1-16.6
			c-10.9-8.3-25.4-14.2-39.4-13.4c-6.2,0-13.1,2.2-16,7.7C333,414.6,335.5,419.7,341.2,423.5z M337.9,412.9
			c2.2-8.9,11.3-8.4,18.4-10c8.9,1,17.3,2.9,25.4,7.4c4.7,2.6,9.3,5.7,13.1,9.6c3.3,3.3,7,8.6,2.9,12.9c-2.1,2.3-4.8,3.9-7.7,4.8
			c-14.7,4.9-25.9-2.8-37.7-10.6C348,424.3,336.4,419.1,337.9,412.9z"/>
	</g>
	<g>
		<g>
			<path class="st0" d="M355.8,298.2c1.5,8.2-3.7,13.8-10.1,16.9c-0.3,0.1-0.4,0.4-0.5,0.6c-1.3,0-2.6,0-4.1-0.2
				c-3.5-0.6-6.8-2.1-10.1-3.6c-5.2-2.4-10.6-5.6-16.3-6.2c-1.9-8.5-0.9-16.1,5.5-21.9c5.7-5.1,13.9-5.6,21-2.9
				C348.6,283.6,354.4,290.3,355.8,298.2z"/>
			<path class="st1" d="M329.1,292.3c-6.4,1.8-9.2,10-4.4,14.7c0.1,0.1,0.1,0.1,0.2,0.1c1.8,4,5.3,7,10.2,7.9
				c8.3,1.6,12.9-6.2,11.2-13.4C344.5,294.4,335.9,290.4,329.1,292.3z"/>
			<g>
				<path class="st3" d="M354.8,292.9c-0.5-1.1-1.1-2.1-1.8-2.8c-0.2-0.2-0.6,0-0.6,0.3c0,0.3,0.1,0.5,0.2,0.8
					c-0.1,0.1-0.1,0.1-0.1,0.3c0,0.2,0,0.3,0,0.5c-0.1-0.1-0.3-0.2-0.4-0.3c-0.4-0.2-0.8,0.2-0.6,0.6c0.2,0.5,0.4,1,0.7,1.5
					c0,0,0,0-0.1,0c-0.3-0.5-0.7-0.9-1.1-1.2c-0.3-0.3-0.7,0-0.7,0.4c0,0.8,0.2,1.6,0.4,2.4c-0.1-0.1-0.2-0.2-0.2-0.3
					c-0.3-0.4-1.2-0.3-1.1,0.4c0.1,0.7,0.2,1.3,0.4,1.9c-0.1-0.1-0.2-0.3-0.3-0.4c-0.3-0.3-1-0.2-0.9,0.3c0.1,0.4,0.1,0.9,0.2,1.3
					c-0.2-0.3-0.5-0.7-0.7-0.9c-0.2-0.2-0.8-0.1-0.8,0.3c-0.1,0.8,0,1.5,0.1,2.3c-0.2-0.3-0.4-0.6-0.6-0.9c-0.3-0.4-1-0.2-0.9,0.3
					c0.1,0.7,0.2,1.5,0.3,2.2c-0.1,0-0.3,0.2-0.3,0.3c-0.1,0.5-0.1,1-0.2,1.4c-0.2-0.2-0.5-0.1-0.6,0.2c0,0.2,0,0.3-0.1,0.5
					c-0.1-0.4-0.3-0.9-0.5-1.2c-0.1-0.2-0.6-0.2-0.7,0.1c-0.3,0.8-0.4,1.6-0.4,2.4c-0.2-0.1-0.5-0.1-0.6,0.2
					c-0.1-0.2-0.1-0.5-0.2-0.7c-0.1-0.3-0.6-0.3-0.7,0c-0.4,0.6-0.5,1.4-0.6,2.1c0-0.3-0.1-0.6-0.2-0.8c-0.1-0.3-0.6-0.3-0.7,0
					c-0.2,0.5-0.3,1.1-0.4,1.6c0-0.6,0-1.2-0.2-1.7c-0.2-0.4-0.7-0.4-0.9,0c-0.1,0.2-0.2,0.4-0.2,0.6c-0.1-0.2-0.1-0.4-0.3-0.6
					c-0.1-0.2-0.4-0.2-0.5,0c-0.1,0.1-0.2,0.3-0.2,0.4c0-0.1-0.1-0.2-0.1-0.2c-0.1-0.2-0.4-0.1-0.5,0.1c-0.1-0.1-0.1-0.2-0.2-0.3
					c-0.1-0.1-0.3-0.1-0.4,0c0-0.4-0.1-0.7-0.5-0.7c-0.9-0.2-0.9,1.4-0.9,1.9c0,0.6,0.7,0.6,1,0.3c0,0.5,0,1,0.4,1.3
					c0.1,0.1,0.2,0.1,0.3,0.1c0,0,0,0,0.1,0c0,0,0.1,0,0.1-0.1c0,0,0,0,0-0.1c0,0,0,0.1,0,0.1c0,0.3,0.3,0.3,0.5,0.2
					c0,0.2,0.1,0.5,0.2,0.7c0,0.1,0.1,0.2,0.1,0.2c0,0,0,0,0,0c0,0,0,0,0,0c0.2,0.1,0.4,0.1,0.5,0c0.1-0.1,0.1-0.1,0.1-0.2
					c0,0,0,0.1,0,0.1c0,0,0,0,0,0c0.2,0.4,0.8,0.5,1,0.1c0.1-0.2,0.2-0.5,0.2-0.8c0,0.5,0,1.1,0.1,1.6c0,0,0,0,0,0c0,0,0,0,0,0.1
					c0,0,0,0,0,0c0.1,0.3,0.7,0.5,0.9,0.1c0.1-0.2,0.1-0.4,0.2-0.7c0,0.3,0,0.6,0.1,1c0.1,0.5,0.9,0.8,1.1,0.3c0,0.1,0,0.2,0,0.2
					c0,0.2,0,0.4,0,0.7c0,0,0,0,0,0c0.1,0.6,0.8,0.9,1.2,0.5c0,0.1,0,0.3,0,0.4c0,0,0,0,0,0c0,0.5,0.5,0.7,0.9,0.6
					c0.4,0.3,0.8,0.5,1.3,0.6c0.1,0,0.2,0,0.3,0c0,0,0,0,0,0c0.1,0.4,0.4,0.7,0.8,0.8c0.7,0.1,1.3,0,1.8-0.2c0,0,0.1,0,0.1,0
					c0,0.1,0.1,0.2,0.1,0.2c0.1,0.2,0.4,0.3,0.6,0.1c0.3-0.3,0.5-0.6,0.7-0.9c0.2-0.1,0.4-0.2,0.6-0.4c0.1-0.2,0.3-0.4,0.4-0.6
					c0.2,0.7,1.2,1,1.5,0.2c0.2-0.4,0.3-0.9,0.5-1.4c0.1,0,0.3-0.1,0.4-0.2c0.9-0.9,1.6-1.9,2.2-3.1c0.2,0.1,0.4,0.1,0.6-0.2
					c1.5-2.4,1.4-6.4,0.4-9.5c0-1.2-0.4-2.5-0.7-3.6C355.6,294.8,355.3,293.8,354.8,292.9z"/>
			</g>
			<path class="st2" d="M325.5,289c3.1-3.5,9.7-4.4,11.7-8.8c0.1-0.2,0.1-0.3,0.2-0.5c-6-1.2-12.4-0.2-17.1,4
				c-6.5,5.8-7.4,13.4-5.5,21.9c1.1,0.1,2.3,0.4,3.4,0.7c0.5-0.6,0.9-1.3,1.2-2.1c0.8-1.8,0.9-3.9,1.2-5.8
				C321.2,294.9,323.1,291.7,325.5,289z"/>
			<path class="st4" d="M342.3,278.6c-8.4-3.5-17.7-1.8-24.3,4.2c-5.8,5.2-8.5,15.2-4.8,22.8c-0.5,0-0.5,0.8,0,1
				c7.8,2.2,14.7,6.1,22.2,9c4.8,1.9,11.6,3.7,16.2,0.8c0.4-0.2,0.3-0.8,0-1c4.5-2.9,7-9.2,7.2-14.5
				C359.1,290.8,350.7,282.1,342.3,278.6z M355.8,298.2c1.5,8.2-3.7,13.8-10.1,16.9c-0.3,0.1-0.4,0.4-0.5,0.6c-1.3,0-2.6,0-4.1-0.2
				c-3.5-0.6-6.8-2.1-10.1-3.6c-5.2-2.4-10.6-5.6-16.3-6.2c-1.9-8.5-0.9-16.1,5.5-21.9c5.7-5.1,13.9-5.6,21-2.9
				C348.6,283.6,354.4,290.3,355.8,298.2z"/>
		</g>
		<g>
			<path class="st0" d="M210.3,336.6c2.3-7.2,7.7-13.3,15.3-14.7c8.5-1.5,15.1,2.4,20.6,9.1c-3,4.9-3.8,11.1-5.2,16.6
				c-0.8,3.5-1.7,7-3.4,10.1c-0.7,1.3-1.5,2.4-2.3,3.4c-0.2-0.1-0.5-0.1-0.8,0c-6.4,3.1-14,3.8-19.5-2.5
				C209.7,352.7,208,344,210.3,336.6z"/>
			<path class="st1" d="M223.6,353.4c4.6,5.8,13.6,7,17.4-0.5c2.2-4.4,2.1-9,0-12.9c0-0.1,0.1-0.2,0-0.3c-0.7-6.7-8.9-9.5-14.3-5.7
				C221.1,338.3,218.9,347.5,223.6,353.4z"/>
			<g>
				<path class="st3" d="M244.1,325.9c-0.2-0.1-0.4-0.1-0.5,0.1c-0.1,0.1-0.1,0.2-0.1,0.2c-0.3-0.3-0.7-0.5-1.1-0.4c0,0-0.1,0-0.1,0
					c-0.1-0.1-0.1-0.2-0.2-0.3c-0.3-0.5-0.6-0.9-1-1.2c-0.3-0.2-0.6-0.1-0.8,0.1c-0.1,0.1-0.2,0.2-0.2,0.3c0,0.2-0.1,0.4-0.1,0.6
					c-0.3-0.4-0.7-0.8-1.1-1.1c-0.5-0.3-1,0.1-0.9,0.6c0.1,0.4,0.2,0.7,0.3,1.1c-0.5-0.2-1-0.4-1.5-0.4c-0.3,0-0.5,0.2-0.5,0.5
					c-0.1-0.1-0.3-0.2-0.4-0.3c-0.4-0.2-1,0.1-0.8,0.6c0.5,0.9,1,1.8,1.5,2.7c-0.8-0.6-1.5-1.1-2.3-1.5c-0.3-0.1-0.5,0-0.6,0.3
					c-0.3,0-0.7,0.3-0.5,0.7c0.8,2,1.8,3.9,2.8,5.8c-0.2-0.4-0.5-0.7-0.7-1c-0.4-0.5-1.1-0.2-1.1,0.4c0,0.6,0.2,1.3,0.3,1.9
					c-0.4-0.6-0.8-1.2-1.1-1.8c-0.2-0.3-0.8-0.1-0.7,0.3c0.2,1,0.5,2.1,0.8,3.2c0,0,0,0,0,0c-0.3-0.4-0.9-0.1-0.8,0.4
					c0.4,1.7,1.1,3.3,1.7,4.9c0.2,0.6,0.4,1.2,0.6,1.8c-0.2-0.4-0.5-0.8-0.8-1.2c-0.3-0.3-0.7,0-0.7,0.3c0,1.1,0.5,2.1,0.9,3.1
					c0.3,0.6,0.5,1.3,0.9,1.9c0,0.1,0,0.3-0.1,0.4c-0.3-0.8-0.7-1.5-1.2-2c-0.2-0.2-0.6-0.1-0.6,0.2c0.1,1.1,0.3,2.3,0.7,3.3
					c-0.3-0.5-0.8-0.9-1.3-0.9c-0.1,0-0.3,0.1-0.3,0.2c-0.3,0.8,0.7,2,1.3,2.5c0.4,0.4,1.1-0.1,0.9-0.6c0-0.1-0.1-0.2-0.1-0.3
					c0.1,0,0.1,0,0.2,0c0,0.3,0.1,0.5,0.3,0.5c0.8-0.1,1.1-1.4,1.3-2.1c0.2-0.5,0.3-1,0.5-1.6c0.3-0.1,0.5-0.4,0.3-0.8
					c-0.2-0.4-0.1-0.8-0.3-1.2c0.1-0.4,0.1-0.7,0-1.1c0.1,0.2,0.3,0.4,0.4,0.6c0.3,0.4,1,0.2,0.9-0.3c0-0.4-0.1-0.7-0.2-1.1
					c0.1-0.2,0.1-0.4,0.2-0.5c0.1,0,0.2,0,0.2,0c0.3,0.3,0.8,0,0.8-0.4c0,0,0,0,0,0c0-0.1,0-0.2,0-0.3c0.1,0,0.1,0,0.2-0.1
					c0.2-0.4,0.2-0.8,0.2-1.2c0,0.1,0.1,0.1,0.1,0.2c0.2,0.3,0.6,0.1,0.6-0.2c0-0.2,0-0.4,0-0.7c0.3-0.3,0.6-0.8,0.7-1.2
					c0.1,0.1,0.4,0.1,0.4-0.1c0.3-0.7,0.3-1.5,0.2-2.4c0.1,0,0.2,0,0.2-0.1c0.1-0.3,0.2-0.6,0.2-0.9c0.1,0.1,0.2,0.2,0.4,0.3
					c0.1,0.1,0.4,0.1,0.5-0.1c0.3-0.7,0.3-1.4,0.2-2.2c0.1,0,0.1-0.1,0.2-0.1c0.1-0.1,0.1-0.3,0.1-0.4c0.2,0,0.3,0,0.5-0.1
					c0,0,0,0.1,0.1,0.1c0.2,0.2,0.5,0,0.5-0.2c0.1-0.4,0.2-0.9,0.2-1.4c0.1,0,0.1,0,0.1-0.1c0.2-0.2,0.3-0.4,0.4-0.6
					c0.1,0,0.2,0,0.2,0c1-0.2,0.6-1.5,0.4-2.1C245.4,328.4,245.2,326.3,244.1,325.9z"/>
			</g>
			<path class="st4" d="M215.2,362.7c4.3,3.1,10.8,5.1,15.8,3.3c0,0.4,0.4,0.8,0.8,0.6c5.1-1.8,7.9-8.3,9.4-13.2
				c2.3-7.8,3.5-15.6,6.6-23c0.2-0.5-0.4-1-0.8-0.6c-3.7-7.6-13.2-11.6-20.9-10.3c-8.7,1.5-15.9,7.7-18.3,16.5
				C205.5,344.8,207.1,356.8,215.2,362.7z M210.3,336.6c2.3-7.2,7.7-13.3,15.3-14.7c8.5-1.5,15.1,2.4,20.6,9.1
				c-3,4.9-3.8,11.1-5.2,16.6c-0.8,3.5-1.7,7-3.4,10.1c-0.7,1.3-1.5,2.4-2.3,3.4c-0.2-0.1-0.5-0.1-0.8,0c-6.4,3.1-14,3.8-19.5-2.5
				C209.7,352.7,208,344,210.3,336.6z"/>
			<path class="st2" d="M228.4,321.6c-0.9,0-1.9,0.1-2.8,0.3c-7.6,1.4-13,7.5-15.3,14.7c-2.3,7.4-0.6,16.1,4.7,22.1
				c0.8,0.9,1.7,1.7,2.5,2.3c-1.5-6-2.9-11.8-1.7-18.2c1.3-7.4,7.4-10.7,11.2-16.5C227.7,325.1,228.3,323.4,228.4,321.6z"/>
		</g>
		<g>
			<path class="st0" d="M309.1,424.4c-17.5,5.8-40.7,7.7-55.9-2.7c0.3-0.3,0.3-0.8-0.2-1c-1.3-0.6-2.5-1.3-3.6-2
				c-4-3.7-7.2-8.5-9.3-14.6c-0.3-1-2-0.7-1.8,0.4c0.2,1.3,0.5,2.5,0.9,3.7c-4.9-7.7-7.2-17.3-7.7-26.3c-0.9-15.2,4.4-30,11.5-43.2
				c7.5-14.1,18.1-26.1,33.3-31.7c13.9-5.1,30.1-4.7,44.4-1.6c27.7,6,51.8,29.8,49.5,59.6C367.8,395.2,334.9,415.8,309.1,424.4z"/>
			<path class="st2" d="M296.3,303.1c-6.9,0.3-13.7,1.5-20.1,3.8c-15.2,5.6-25.9,17.6-33.3,31.7c-7,13.2-12.3,28.1-11.5,43.2
				c0.2,4.2,0.9,8.5,1.9,12.7c5-6.7,5.4-17,7-25.2c1.9-9.7,5-19.3,12.1-26.5c7.4-7.5,16.5-12.5,25-18.6
				C280.8,321.8,293.9,310.8,296.3,303.1z"/>
			<g>
				<path class="st3" d="M368.6,343.9c-0.4-1-0.7-1.9-1.1-2.9c0-0.4,0.1-0.7,0.1-1.1c-0.1-0.3-0.3-0.5-0.4-0.8
					c-0.3-0.6-0.6-1.1-0.9-1.7c-0.1,0.2-0.1,0.4-0.2,0.6c-0.1-0.3-0.3-0.6-0.4-0.9c0-0.1,0-0.1,0-0.2c0-0.2-0.1-0.3-0.3-0.4
					c-0.2-0.3-0.4-0.7-0.5-1c0,0,0,0,0,0c0,0,0,0,0,0c-0.1-0.2-0.2-0.5-0.4-0.7c0-0.1,0-0.2-0.1-0.4c0-0.2-0.2-0.2-0.3-0.3
					c-0.1-0.1-0.2-0.3-0.2-0.4c0-0.2,0.1-0.3,0.1-0.5c-0.2-0.3-0.4-0.6-0.5-0.9c0,0.1-0.1,0.3-0.1,0.4c-0.7-1.2-1.5-2.3-2.3-3.4
					c0-0.4,0-0.9,0-1.3c-0.2-0.2-0.4-0.4-0.5-0.6c0,0.3-0.1,0.7-0.1,1c-0.7-0.9-1.4-1.8-2.1-2.7c0-0.3,0-0.6,0-1
					c-0.2-0.3-0.5-0.6-0.7-0.8c0,0.3-0.1,0.5-0.1,0.8c-0.2-0.3-0.5-0.6-0.8-0.8c-0.1-0.3-0.1-0.6-0.2-0.8c-0.1-0.3-0.3-0.4-0.5-0.3
					c0-0.2,0-0.4-0.1-0.6c0-0.3-0.2-0.4-0.5-0.5c0-0.3-0.1-0.7-0.2-1c-0.1-0.5-0.9-0.5-1.1-0.1c0,0,0,0,0,0.1c0,0,0-0.1,0-0.1
					c0-0.2-0.4-0.2-0.4,0c0,0.1,0,0.2-0.1,0.4c-0.3-0.3-0.7-0.6-1-0.9c-0.2-0.5-0.3-0.9-0.6-1.3c-0.2-0.3-0.6-0.1-0.7,0.1
					c0,0,0,0.1,0,0.1c-0.1-0.1-0.2-0.1-0.2-0.2c0-0.1,0-0.3-0.1-0.4c0,0-0.1,0-0.1-0.1c-0.1,0-0.2-0.1-0.2-0.1
					c-0.1-0.3-0.2-0.5-0.4-0.8c-0.2-0.4-0.8-0.2-0.9,0.2c0,0-0.1,0-0.1-0.1c0-0.1-0.1-0.1-0.1-0.2c0,0,0,0-0.1-0.1c0,0,0-0.1,0-0.1
					c-0.3-0.2-0.6-0.4-0.9-0.7c0,0.1,0,0.2,0,0.3c-0.4-0.3-0.7-0.5-1.1-0.7c0-0.2,0-0.3-0.1-0.5c-0.2-0.2-0.4-0.3-0.7-0.5
					c0,0.2,0,0.3,0,0.5c-0.7-0.4-1.5-0.8-2.2-1.2c-0.1-0.2-0.3-0.5-0.4-0.7c-0.1-0.2-0.4-0.2-0.5,0c-0.3-0.6-0.7-1.2-1.2-1.7
					c-0.3-0.3-0.6-0.1-0.8,0.2c-0.2-0.1-0.4-0.1-0.5,0c-0.1-0.1-0.2-0.2-0.3-0.3c0.3,0.1,0.6,0.1,0.8,0.2c0.1,0,0.1-0.1,0-0.1
					c-0.5-0.2-1-0.3-1.5-0.5c-0.1-0.1-0.1-0.1-0.2-0.1c-0.1-0.4-0.2-0.8-0.5-1.1c-0.2-0.3-0.6-0.2-0.7,0.1c0,0.1,0,0.1,0,0.2
					c-0.1-0.1-0.2-0.1-0.3-0.1c-0.1-0.2-0.2-0.3-0.3-0.5c-0.1-0.1-0.3-0.1-0.4,0c-0.1-0.1-0.2-0.1-0.4-0.1c-0.2-0.3-0.5-0.6-0.6-0.9
					c-0.2-0.3-0.5-0.3-0.7-0.1c0,0-0.1,0-0.1-0.1c0,0,0,0,0,0.1c-0.4-0.2-0.9-0.1-0.9,0.4c0,0.5,0.1,0.8,0.3,1.2
					c0.2,0.5,0.4,1,0.9,1.3c0.1,0,0.1,0.1,0.2,0.1c0.1,0.4,0.3,0.7,0.5,1c0.2,0.3,0.6,0.4,0.9,0.3c0.1,0.2,0.3,0.5,0.4,0.7
					c0.2,0.3,0.5,0.4,0.9,0.4c0.1,0.3,0.3,0.5,0.4,0.8c0.2,0.3,0.4,0.4,0.7,0.4c0.2,0.4,0.4,0.8,0.7,1.1c0.2,0.2,0.4,0.2,0.6,0.2
					c0.2,0.5,0.6,0.9,1.1,1.1c0,0,0,0,0,0c0.2,0.3,0.4,0.7,0.7,0.9c0.1,0.1,0.3,0.1,0.5,0.1c0.2,0.2,0.4,0.4,0.6,0.5
					c0.1,0.5,0.2,1,0.4,1.5c0.1,0.1,0.2,0.1,0.3,0.1c0.2,0.3,0.4,0.5,0.6,0.7c0.2,0.1,0.4,0.2,0.6,0.1c0.1,0.3,0.3,0.5,0.4,0.7
					c0.1,0.1,0.2,0.2,0.3,0.2c0,0.2,0.1,0.3,0.1,0.5c0,0.1,0.1,0.2,0.2,0.2c0.1,0.4,0.2,0.7,0.4,1.1c0.2,0.5,1,0.3,0.9-0.2
					c0,0,0,0,0,0c0,0.1,0.1,0.2,0.1,0.3c0,0,0,0,0,0.1c0,0.4,0.3,0.6,0.6,0.6c0,0,0.1,0.1,0.1,0.1c0.1,0.5,0.2,0.9,0.4,1.4
					c0,0.3,0.3,0.5,0.6,0.5c0,0.1,0.1,0.2,0.1,0.3c0,0.1,0.1,0.3,0.1,0.4c0.1,0.3,0.2,0.5,0.3,0.8c0.1,0.2,0.3,0.4,0.5,0.4
					c0.1,0.2,0.2,0.5,0.2,0.7c0.2,0.5,0.6,0.6,1,0.6c0.1,0.2,0.2,0.4,0.3,0.6c0,0,0,0,0,0c0,0.1,0.1,0.1,0.2,0.1
					c0.1,0.4,0.2,0.9,0.4,1.3c0,0,0,0,0,0c0.1,0.3,0.4,0.5,0.7,0.4c0,0.1,0.1,0.3,0.1,0.4l0,0c0,0.1,0.1,0.2,0.2,0.3
					c0.1,0.5,0.3,0.9,0.4,1.4c0,0.1,0.4,1.7,1,2.1c0,0,0,0,0.1,0c0.1,0.1,0.3,0.1,0.5-0.1c0.2-0.2,0.3-0.4,0.4-0.7
					c0,0.4,0.1,0.7,0.2,1.1c0,0.1,0.1,0.1,0.1,0.1c0.2,0.7,0.4,1.2,0.9,1.6c0,0,0.1,0,0.1,0c0.1,0.5,0.1,1,0.2,1.5
					c0,0.1,0.1,0.1,0.1,0.2c-0.2,1.3-0.4,2.9,0.5,3.7c0,0,0.1,0,0.1,0c0.4-0.2,0.7-0.7,0.9-1.2c0,0.1,0,0.3,0.1,0.4c0,0,0,0.1,0,0.1
					c0.1,1.7,0.3,3.5,0.9,5c0,0.1,0.1,0.2,0.3,0.3c0.2,1.6,0.5,3.1,0.8,4.5c0.1,0.3,0.6,0.3,0.7-0.1c0-0.2,0.1-0.5,0.1-0.8
					c0.1,1.6,0.1,3.3,0.5,4.8c0.1,0.4,0.6,0.3,0.7-0.1c0.1-0.4,0.2-0.9,0.3-1.3c0,0,0.1,0,0.1,0c0,0.1,0,0.1,0.1,0.2
					c0,0,0,0.1,0,0.1c-0.1,0.4,0,0.7,0.2,0.8c0,0.1,0,0.2,0,0.3c0,0.1,0,0.1-0.1,0.2c0,0,0,0,0,0c0,0.1,0,0.2,0,0.3c0,1,0,2,0,3
					c0,0.5,0,1.1-0.1,1.6c0,0,0,0.1,0,0.1c0,0.1,0,0.2,0,0.3c0,0.2,0,0.3,0,0.5c-0.1-0.4-0.7-0.5-0.8,0c-0.1,0.8-0.2,1.5-0.2,2.3
					c-0.3-0.1-0.7,0-0.8,0.4c-0.4,1.5-0.7,3.1-1,4.7c-0.2,1.2-0.5,2.3-0.8,3.5c0-0.1,0-0.3-0.1-0.4c-0.1-0.3-0.5-0.3-0.7-0.2
					c0-0.1,0-0.3,0-0.4c-0.1-0.5-0.8-0.7-1-0.2c-0.6,1.2-0.9,2.8-1.1,4.4c-0.3-0.1-0.6,0.1-0.7,0.5c-0.3,0.9-0.3,1.9-0.4,2.9
					c0-0.1,0-0.2,0-0.4c-0.1-0.6-0.9-0.9-1.2-0.2c-0.1,0.1-0.1,0.3-0.2,0.4c-0.2,0.5-0.4,0.9-0.7,1.4c0,0,0-0.1,0-0.1
					c-0.1-0.3-0.6-0.5-0.9-0.2c-0.5,0.8-0.7,1.7-0.8,2.7c-0.2-0.1-0.5-0.1-0.8,0.1c0,0,0,0,0-0.1c-0.1-0.6-0.9-0.8-1.2-0.2
					c-0.2,0.4-0.4,0.8-0.5,1.2c-0.2-0.1-0.5-0.1-0.6,0.2c-0.1,0.3-0.2,0.5-0.3,0.8c-0.1-0.1-0.3-0.1-0.4-0.1c-0.2-0.3-0.7-0.4-0.9,0
					c-0.1,0.4-0.2,0.8-0.3,1.2c-0.1-0.1-0.3-0.2-0.4,0c0,0-0.1,0.1-0.1,0.1c0-0.1,0-0.1-0.1-0.2c-0.1-0.4-0.7-0.4-0.9,0
					c0,0.1-0.1,0.2-0.1,0.3c-0.2,0-0.3,0-0.5,0.2c-0.6,0.6-0.6,1.6-0.8,2.4c0,0.1,0,0.3,0,0.6c-0.5,0.8-1,1.6-1.5,2.4
					c-0.2,0-0.4,0.1-0.6,0.2c-0.2,0-0.4,0-0.5,0.2c-0.4,0.5-0.7,1-0.9,1.6c0-0.2,0-0.3,0-0.5c0-0.4-0.6-0.5-0.7-0.1
					c0,0.1,0,0.1-0.1,0.2c-0.1,0-0.2,0.1-0.3,0.2c-0.2,0.3-0.3,0.5-0.4,0.8c-0.2-0.2-0.5-0.2-0.6,0c-0.2,0.3-0.4,0.6-0.5,0.9
					c-0.2-0.3-0.7-0.4-0.9,0.1c-0.3,0.7-0.6,1.4-0.8,2.2c0,0,0-0.1,0-0.1c-0.1-0.6-1-0.8-1.2-0.2c-0.1,0.3-0.3,0.7-0.4,1
					c-0.1-0.1-0.1-0.1-0.2-0.1c0-0.1,0-0.2-0.1-0.3c-0.1-0.4-0.7-0.4-0.8,0c-0.1,0.2-0.1,0.4-0.2,0.6c-0.2,0-0.4,0.1-0.5,0.3
					c-0.2,0.3-0.3,0.7-0.4,1c-0.2-0.6-1-0.7-1.3-0.1c-0.3,0.6-0.5,1.3-0.7,1.9c-0.3-0.2-0.6-0.2-0.8,0.1c-0.4,0.6-0.7,1.3-1,2
					c-0.3-0.2-0.7-0.1-0.9,0.2c-0.1,0.2-0.2,0.4-0.3,0.6c-0.2-0.1-0.5-0.1-0.6,0.1c-0.4,0.5-0.6,1-0.8,1.6c-0.1-0.1-0.2-0.1-0.3-0.1
					c0.1-0.8,0.2-1.5,0.3-2.3c0-0.3-0.4-0.5-0.5-0.2c-0.4,1-0.7,2.1-1.1,3.2c-0.1,0-0.2,0.1-0.3,0.1c-0.3,0.3-0.4,0.6-0.6,0.9
					c-0.1,0-0.1,0-0.2,0.1c0,0,0,0,0-0.1c-0.1-0.5-0.8-0.5-1-0.1c-0.4,0.9-0.6,2-0.7,3c0,0,0,0,0,0c0-0.7,0-1.4-0.2-2.1
					c-0.1-0.4-0.7-0.4-0.8,0c-0.4,0.9-0.6,1.9-0.8,2.8c0,0,0-0.1-0.1-0.1c-0.4-0.5-1-0.4-1.3,0.1c-0.2,0.3-0.2,0.6-0.3,0.9
					c-0.1,0-0.1,0.1-0.2,0.2c-0.1,0.2-0.2,0.4-0.2,0.5c-0.2-0.1-0.4-0.1-0.5,0c-0.1,0-0.2,0-0.4,0c0,0,0-0.1,0-0.2
					c0-0.2,0.1-0.5,0.1-0.7c0-0.3-0.4-0.4-0.5-0.1c0,0.1,0,0.2-0.1,0.3c-0.2,0-0.5,0.1-0.6,0.3c-0.1,0.3-0.3,0.6-0.4,1
					c-0.2-0.2-0.4-0.3-0.7-0.2c0-0.6-0.1-1.2-0.2-1.7c-0.1-0.4-0.6-0.4-0.7,0c-0.2,0.6-0.3,1.2-0.5,1.9c-0.1,0-0.2,0.1-0.2,0.1
					c0,0,0-0.1,0-0.1c0-0.1-0.1-0.2-0.1-0.3c0.3-1.5,0.5-2.9,0.7-4.4c0-0.3-0.5-0.5-0.6-0.2c-0.9,2.6-1.7,5.3-2.5,8
					c0-0.1,0-0.1,0-0.2c0-0.2-0.3-0.4-0.5-0.4c0-0.2,0-0.4,0.1-0.6c0-0.3-0.5-0.5-0.6-0.2c-0.2,0.5-0.3,0.9-0.4,1.4
					c-0.2-0.1-0.4-0.1-0.6,0c-0.1-0.2-0.4-0.3-0.6-0.2c0-0.1,0-0.3-0.1-0.4c-0.1-0.2-0.3-0.3-0.5-0.3c0,0,0,0,0-0.1
					c0.1-0.4-0.5-0.5-0.6-0.2c-0.2,0.3-0.3,0.6-0.4,0.9c-0.1,0-0.2,0-0.3,0.1c-0.3,0.4-0.5,0.8-0.7,1.2c0.1-0.5,0.1-1-0.1-1.5
					c-0.1-0.3-0.5-0.4-0.8-0.2c-0.3,0.3-0.6,0.6-0.8,0.9c-0.2-0.2-0.5-0.2-0.6,0.1c0,0,0,0.1,0,0.1c-0.2-0.1-0.4-0.2-0.6,0.1
					c-0.2,0.2-0.3,0.4-0.4,0.5c-0.1-0.1-0.1-0.1-0.2-0.2c0.1-0.6,0.2-1.1,0.3-1.7c0-0.3-0.4-0.5-0.5-0.2c-0.3,0.8-0.6,1.5-0.9,2.3
					c-0.2,0.3-0.4,0.6-0.6,0.9c0,0,0,0,0,0c0-0.2-0.3-0.2-0.4-0.1c-0.2,0.3-0.4,0.6-0.5,0.9c0,0,0-0.1,0-0.1c-0.1-0.4-0.7-0.4-0.9,0
					c0,0.1-0.1,0.1-0.1,0.2c-0.2-0.1-0.5,0-0.6,0.2c0,0.1-0.1,0.1-0.1,0.2c-0.2-0.1-0.4-0.1-0.6,0c0-0.3,0-0.6-0.1-0.9
					c0-0.1,0-0.1-0.1-0.2c0.1-0.3,0.1-0.7,0.2-1c0-0.4-0.5-0.6-0.6-0.2c-0.5,0.9-0.8,1.9-1.2,2.9c-0.1-0.3-0.4-0.3-0.7-0.2
					c0-0.3-0.1-0.6-0.2-0.9c-0.1-0.2-0.5-0.5-0.7-0.2c-0.4,0.3-0.6,0.8-0.8,1.3c-0.2-0.2-0.5-0.2-0.7,0.1c-0.3,0.4-0.5,0.9-0.7,1.4
					c0-0.2-0.1-0.5-0.1-0.7c-0.1-0.4-0.6-0.4-0.9-0.2c0,0,0,0,0,0c-0.2-0.4-0.6-0.5-1-0.2c-0.1,0.1-0.2,0.3-0.3,0.4
					c0-0.1-0.1-0.1-0.1-0.2c-0.2-0.3-0.6-0.2-0.7,0.1c-0.2,0.3-0.3,0.7-0.4,1c0,0,0-0.1,0-0.1c-0.2-0.4-0.6-0.4-0.8-0.1
					c-0.1-0.2-0.1-0.4-0.2-0.6c-0.1-0.3-0.5-0.2-0.7,0c-0.2,0.2-0.4,0.5-0.5,0.7c-0.1-0.1-0.2-0.2-0.3-0.2c-0.1-0.2-0.4-0.3-0.5,0
					c-0.1,0.3-0.2,0.6-0.4,1c-0.1,0-0.3,0.1-0.4,0.2c-0.1,0.2-0.2,0.3-0.2,0.5c0-0.1,0-0.1-0.1-0.2c-0.1-0.3-0.4-0.4-0.7-0.2
					c0.1-0.4,0.1-0.8-0.1-1.2c-0.1-0.3-0.4-0.3-0.6-0.2c-0.5,0.3-0.9,0.8-1.1,1.4c0-0.1,0-0.2-0.1-0.3c-0.1-0.3-0.5-0.3-0.6-0.1
					c-0.1,0.1-0.2,0.2-0.2,0.3c0,0,0,0,0,0c0-0.4-0.5-0.4-0.7-0.1c0,0,0,0,0,0.1c0-0.2-0.4-0.2-0.5-0.1c-0.2,0.2-0.3,0.5-0.5,0.8
					c0-0.5,0-0.9-0.2-1.3c-0.1-0.2-0.4-0.3-0.5-0.1c-0.1,0.1-0.3,0.3-0.4,0.5c0-0.1,0-0.2,0-0.4c0-0.4-0.5-0.6-0.7-0.2
					c-0.1,0.3-0.3,0.7-0.4,1.1c-0.2-0.1-0.4,0-0.6,0.1c-0.1,0.1-0.2,0.2-0.2,0.3c0-0.3,0-0.5-0.1-0.8c-0.1-0.3-0.4-0.5-0.6-0.2
					c-0.2,0.3-0.4,0.5-0.5,0.8c0-0.2,0-0.3-0.1-0.5c-0.1-0.3-0.5-0.4-0.7-0.2c-0.1,0.1-0.2,0.2-0.3,0.3c-0.2-0.2-0.4-0.3-0.7-0.1
					c-0.4,0.2-0.6,0.5-0.8,0.9c0,0,0,0,0,0c-0.1-0.1-0.4-0.2-0.5-0.1c0,0,0,0-0.1,0c0,0,0-0.1,0-0.1c0-0.3-0.2-0.4-0.4-0.3
					c0-0.4,0-0.8-0.1-1.2c-0.1-0.3-0.6-0.4-0.8-0.1c-0.5,0.5-0.8,1.2-1,1.9c0-0.1-0.1-0.2-0.2-0.3c-0.1-0.1-0.1-0.1-0.2-0.2
					c0.1-0.5,0.3-1,0.4-1.5c0.1-0.4-0.5-0.6-0.7-0.2c-0.2,0.4-0.4,0.9-0.7,1.4c0-0.1-0.1-0.3-0.1-0.4c-0.1-0.3-0.4-0.3-0.6-0.1
					c-0.4,0.4-0.7,1-0.9,1.5c0-0.3-0.1-0.6-0.3-0.8c-0.1-0.2-0.5-0.2-0.7,0c-0.1,0.2-0.3,0.4-0.4,0.6c0-0.1,0-0.2,0-0.3
					c0-0.4-0.5-0.4-0.7-0.1c-0.1,0.2-0.3,0.4-0.4,0.6c-0.1-0.3-0.1-0.5-0.3-0.7c-0.1-0.2-0.5-0.2-0.6,0c0,0,0,0,0,0
					c-0.1-0.1-0.1-0.3-0.2-0.4c-0.1-0.2-0.4-0.2-0.5,0c-0.2,0.3-0.3,0.6-0.5,1c-0.2-0.2-0.4-0.2-0.6-0.2c0.1-0.5,0.2-1,0.1-1.5
					c0-0.2-0.4-0.3-0.5-0.2c-0.4,0.4-0.7,0.9-0.8,1.4c-0.2-0.1-0.5-0.1-0.7,0c-0.4,0.2-0.6,0.6-0.5,1.1c0.1,0.4,0.4,0.6,0.7,0.5
					c0,0.2,0,0.5,0.2,0.7c0.1,0.1,0.3,0.2,0.4,0.1c0.1-0.1,0.2-0.1,0.3-0.2c0,0.1,0.1,0.2,0.2,0.2c0.2,0.1,0.4,0.1,0.5,0.1
					c0,0,0,0,0,0c-0.3,0.4,0.2,0.9,0.7,0.9c0,0,0,0.1,0,0.1c-0.2,0.5,0.5,1.1,1,0.9c0.2,0.3,0.7,0.5,1,0.4c0.3,0.4,0.9,0.6,1.3,0.1
					c0,0,0-0.1,0.1-0.1c0.4,0.4,1,0.4,1.3,0c0-0.1,0.1-0.1,0.1-0.2c0.3,0.2,0.7,0.3,1.1,0.1c0.1-0.1,0.3-0.2,0.4-0.3c0,0,0,0,0,0
					c-0.1,0.4,0.5,0.7,0.7,0.2c0-0.1,0-0.1,0.1-0.2c0.2,0,0.3-0.1,0.5-0.2c0,0,0,0,0,0c0,0.2,0.1,0.5,0.1,0.7c0,0.4,0.6,0.5,0.7,0.1
					c0-0.1,0.1-0.2,0.1-0.2c0.2,0,0.3,0,0.5-0.1c0.1-0.1,0.1-0.1,0.2-0.2c0,0.1,0,0.1,0,0.2c0,0.4,0.4,0.8,0.9,0.6c0,0,0,0,0,0
					c0,0,0,0,0,0.1c0,0,0,0,0,0l0,0c0,0.3,0.3,0.4,0.5,0.3c0.2,0.1,0.4,0.1,0.6,0c0,0.2,0.2,0.3,0.4,0.3c0.2,0.3,0.7,0.4,1,0.2
					c0,0.1,0,0.2,0,0.3l0.1,0c0.1,0.6,0.9,1.1,1.3,0.5c0.1-0.2,0.2-0.3,0.3-0.5c0.1,0.6,0.8,0.9,1.2,0.4c0.1-0.1,0.1-0.2,0.2-0.3
					c0,0.1,0,0.1,0,0.2c0,0,0,0.1,0,0.1c0,0,0,0,0,0c0,0,0,0.1,0,0.1c0,0,0,0,0,0c0,0.6,0.9,0.8,1.1,0.2c0.2-0.4,0.3-0.8,0.4-1.2
					c0.1,0.1,0.3,0.2,0.4,0.2c0.1,0,0.2,0.1,0.3,0.1c0.2,0.2,0.5,0.2,0.7,0c0.1-0.2,0.3-0.3,0.4-0.5c0,0.1,0,0.1,0,0.2
					c0,0.2,0,0.3,0,0.5c0,0,0,0,0,0c-0.1,0.3,0.1,0.4,0.4,0.4c0.1,0.5,0.8,0.8,1.2,0.3c0.2-0.2,0.3-0.4,0.4-0.7
					c0.2,0.2,0.5,0.2,0.6,0c0.1-0.2,0.2-0.4,0.4-0.6c0,0,0,0.1,0,0.1c0,0.5,0.7,0.6,0.9,0.2c0-0.1,0.1-0.2,0.1-0.3
					c0.2,0.4,0.7,0.5,1.1,0.4c0.3,0.3,0.9,0.4,1.3,0c0.2,0,0.4-0.1,0.5-0.3c0.1-0.3,0.1-0.6,0.2-0.9c0,0,0,0,0,0c0,0,0,0,0,0
					c0,0.2,0.1,0.4,0.1,0.5c0,0,0,0,0,0c0,0,0,0.1,0,0.1l0,0c0.1,0.4,0.6,0.6,0.8,0.2c0.1-0.2,0.2-0.5,0.2-0.7
					c0.3,0.1,0.7-0.1,0.9-0.5c0,0,0-0.1,0-0.1c0,0,0,0.1,0,0.1c0,0.2,0,0.4,0,0.6l0,0c0,0.4,0.6,0.6,0.8,0.2
					c0.2-0.3,0.3-0.7,0.4-1.1c0.1,0,0.3,0,0.4-0.1c0,0,0,0.1,0.1,0.1c0,0,0,0,0,0c0.1,0,0.2-0.1,0.2-0.1c0,0,0.1,0,0.1,0
					c0.2,0,0.3,0,0.4,0c0,0.1-0.1,0.3-0.1,0.4c-0.1,0.4,0.5,0.6,0.7,0.2c0-0.1,0.1-0.3,0.1-0.4c0.3,0.3,0.7,0.3,1,0
					c0,0.2,0,0.3,0,0.5l0,0c0,0.2,0.3,0.4,0.5,0.2c0.3-0.3,0.4-0.7,0.6-1.1c0.1-0.1,0.2-0.2,0.4-0.3c-0.1,0.7,0.9,1.1,1.4,0.5
					c0.1-0.1,0.1-0.2,0.2-0.3c0.3,0.1,0.7,0.1,0.9-0.2c0.1,0,0.1,0,0.2,0c0.1-0.1,0.1-0.1,0.2-0.2c0.2,0,0.4-0.1,0.5-0.4
					c0.1-0.2,0.2-0.5,0.3-0.7c0.4,0.1,0.8-0.1,0.9-0.5c0,0,0-0.1,0-0.1c0,0,0,0.1,0,0.1c0,0.1,0,0.2,0,0.3c0,0.1,0.1,0.1,0.2,0.1
					c0,0,0-0.1,0-0.1c0.3,0.3,0.8,0.4,1.1,0c0,0.1,0,0.1,0,0.2l0,0c-0.1,0.6,0.8,0.9,1,0.3c0-0.1,0.1-0.2,0.1-0.3
					c0.2,0,0.5-0.2,0.6-0.5c0.1-0.2,0.2-0.3,0.3-0.5c0,0.3,0,0.6,0.1,0.8c0,0.1,0.2,0.2,0.3,0.1c0.3-0.2,0.5-0.5,0.6-0.8
					c0.4-0.1,0.7-0.4,0.9-0.7c0.1,0.1,0.2,0.1,0.4,0.1c-0.1,0.2-0.1,0.5-0.2,0.7c-0.1,0-0.1,0.1-0.1,0.1c0,0.2,0,0.3,0,0.5
					c0,0.3,0.5,0.5,0.7,0.2c0.3-0.5,0.6-1,0.8-1.6c0.2,0,0.4-0.1,0.6-0.4c0.1-0.1,0.1-0.2,0.2-0.4c0.2,0.1,0.5,0.1,0.7-0.1
					c0,0.1,0,0.1,0,0.2c0,0.3,0.5,0.4,0.6,0.1c0.1-0.2,0.1-0.4,0.2-0.5c0.2,0.1,0.5,0,0.6-0.3c0.2-0.3,0.3-0.7,0.4-1.1
					c0.1,0,0.2-0.1,0.3-0.1c0,0,0,0,0,0c0.1,0.3,0.5,0.3,0.7,0.1c0.1-0.1,0.3-0.2,0.4-0.3c0.1,0.4,0.6,0.7,1,0.4c0,0.3,0,0.6,0,0.9
					c0,0.4,0.6,0.4,0.7,0c0.1-0.3,0.1-0.6,0.1-0.9c0,0,0,0.1,0,0.1c0.1,0.5,0.7,0.5,0.8,0c0.1-0.3,0.2-0.6,0.3-0.9
					c0.1-0.1,0.2-0.1,0.3-0.2c0.1,0.1,0.2,0.2,0.3,0.3c0,0.1,0,0.2,0,0.2c0,0.3,0.4,0.3,0.5,0.1c0.1-0.1,0.1-0.3,0.2-0.5
					c0,0,0.1-0.1,0.1-0.1c0.1-0.2,0.2-0.4,0.2-0.6c0.2,0.2,0.6,0.2,0.8-0.1c0,0,0-0.1,0.1-0.1c0.2,0.1,0.4,0.1,0.6-0.1
					c0,0.2,0,0.4,0.1,0.6c0,0.2,0.3,0.1,0.3,0c0.4-0.7,0.6-1.5,0.7-2.3c0.3-0.1,0.5-0.2,0.8-0.3c0.3-0.1,0.6-0.1,0.9-0.2
					c0,0.1,0,0.1,0,0.2c0.1,0.5,0.6,0.4,0.9,0.1c0,0,0,0,0,0c0.2-0.2,0.3-0.5,0.4-0.8c0.3-0.1,0.6-0.2,0.9-0.3
					c0.1,0.1,0.3,0.1,0.4,0c0.3-0.1,0.6-0.3,0.7-0.5c0.2-0.1,0.5-0.2,0.7-0.3c-0.1,0.5-0.1,1-0.1,1.5c0,0.6,0.8,0.7,1.1,0.2
					c0.4-0.8,0.6-1.7,0.9-2.6c1.2-0.6,2.3-1.3,3.4-2c0,0.6-0.1,1.2-0.1,1.7c0,0.3,0.5,0.4,0.6,0.1c0.3-0.8,0.6-1.7,0.9-2.6
					c1.1-0.2,2.1-0.6,3-1.2c0,0.2,0.1,0.4,0.2,0.6c0,0.1,0.2,0.1,0.3,0.1c0.5-0.5,0.7-1.2,0.9-1.9c0.1-0.1,0.2-0.3,0.3-0.5
					c0.1,0,0.2,0,0.3-0.1c0.2-0.1,0.3-0.2,0.5-0.4c-0.1,0.6-0.1,1.1-0.1,1.7c0,0.2,0.4,0.4,0.5,0.2c0.6-0.8,0.9-1.9,1.2-2.9
					c0.2,0.4,0.9,0.5,1.2,0.2c0,0.5-0.1,1-0.1,1.5c0,0.2,0.3,0.2,0.4,0.1c0.4-0.9,0.7-1.8,1-2.7c0.1-0.1,0.3-0.1,0.4-0.3
					c0.4-0.4,0.8-0.8,1.1-1.2c0,0,0,0.1,0.1,0.1c0,0.2,0,0.4,0,0.5c0,0.4,0.6,0.5,0.7,0.1c0.1-0.3,0.2-0.6,0.3-0.9
					c0.4-0.3,0.7-0.7,1-1.2c0.2-0.1,0.4-0.2,0.5-0.3c0,0.1,0,0.1,0,0.2c-0.1,0.4,0.6,0.7,0.7,0.2c0.1-0.4,0.2-0.7,0.4-1.1
					c0.4-0.3,0.7-0.5,1.1-0.8c-0.2,0.9-0.3,1.7-0.3,2.6c0,0.1,0,0.1,0.1,0.2c0.2-0.2,0.4-0.4,0.6-0.5c0.4-1,0.7-2.1,1-3.2
					c-0.1,0.6-0.1,1.1,0.1,1.6c0,0,0.1,0.1,0.1,0c0.6-0.6,0.9-1.4,1.1-2.3c0.4,0.3,0.9,0.3,1.1-0.3c0.2-0.4,0.3-0.9,0.4-1.3
					c0.1-0.3,0.3-0.6,0.4-0.9c0.3,0.3,0.8,0.3,1-0.2c0,0,0-0.1,0-0.1c0.1,0,0.1-0.1,0.2-0.1c0.1-0.3,0.2-0.6,0.3-0.9c0,0,0,0,0,0
					c-0.2,0.8-0.4,1.5-0.5,2.3c0.4-0.5,0.8-0.9,1.2-1.4c0.1-0.4,0.2-0.8,0.2-1.2c0,0,0,0,0,0c0.1,0.2,0.4,0.4,0.6,0.3
					c0.2-0.3,0.5-0.5,0.7-0.8c0.1-0.3,0.2-0.6,0.3-0.8c0.1,0,0.2-0.1,0.3-0.2c0-0.1,0.1-0.1,0.1-0.2c1.9-1.6,3.5-3.8,4.8-6
					c0,0,0,0,0,0.1c0.4-0.5,0.7-1.1,1.1-1.6c0-0.2,0.1-0.3,0.1-0.5c0,0,0-0.1,0.1-0.1c0.5-0.8,1-1.7,1.4-2.6c0.1,0,0.2,0,0.3-0.2
					c0.4-0.8,0.6-1.6,0.9-2.5c0.1-0.4,0.3-0.7,0.4-1.1c0.2,0.1,0.4,0.2,0.5-0.1c0.3-0.8,0.6-1.5,0.8-2.3c1-1.4,1.5-3.3,1.9-5.1
					c0.9-2,1.6-4.3,2-6.6c0.9-3.1,1.2-6.4,1-9.8c0.1-0.3,0.2-0.6,0.2-0.9c0.1-0.2-0.1-0.3-0.3-0.3c-0.4-4.4-1.5-8.8-2.9-12.9
					c0-0.2,0-0.4,0-0.7C368.9,344,368.8,343.9,368.6,343.9z"/>
			</g>
			<path class="st4" d="M355.8,320.6c-18-18.1-46.7-22.9-71-18.6c-26.6,4.7-43.7,28.2-51.7,52.7c-4.2,13-5.5,26.4-2.3,39.8
				c1.9,8,6.1,16.3,12.4,22c4,5.5,9.7,9.7,16.1,12.5c12.3,5.4,26.7,4.2,39.5,1.5c26.2-5.5,53-20.8,67.3-44
				C379.5,364.8,373,338,355.8,320.6z M309.1,424.4c-17.5,5.8-40.7,7.7-55.9-2.7c0.3-0.3,0.3-0.8-0.2-1c-1.3-0.6-2.5-1.3-3.6-2
				c-4-3.7-7.2-8.5-9.3-14.6c-0.3-1-2-0.7-1.8,0.4c0.2,1.3,0.5,2.5,0.9,3.7c-4.9-7.7-7.2-17.3-7.7-26.3c-0.9-15.2,4.4-30,11.5-43.2
				c7.5-14.1,18.1-26.1,33.3-31.7c13.9-5.1,30.1-4.7,44.4-1.6c27.7,6,51.8,29.8,49.5,59.6C367.8,395.2,334.9,415.8,309.1,424.4z"/>
		</g>
		<g>
			<path class="st5" d="M344.6,359.7c-2.9-7.1-14.2-7.7-17.8-0.9c-2,3.7-1.9,7.9,0.5,11.4c0.8,1.1,2,2,3.2,2.4
				c0.2,0.1,0.4,0.3,0.7,0.4c4,2.3,8.8,0.7,11.9-2.3C345.9,368,346,363.2,344.6,359.7z"/>
			<path class="st6" d="M329.8,359.5c-1.5-0.1-2.8,1.4-2.9,2.8c-0.1,0.8,0.1,1.5,0.6,2.1c0.3,0.7,0.9,1.3,1.5,1.6
				c0.5,0.2,1.1,0.2,1.5-0.1c0.6-0.5,1.2-0.9,1.8-1.4c0.9-0.7,1-1.5,0.7-2.6C332.6,360.4,331.2,359.6,329.8,359.5z"/>
		</g>
		<g>
			<path class="st5" d="M277.5,383.5c-2.9-7.1-14.2-7.7-17.8-0.9c-2,3.7-1.9,7.9,0.5,11.4c0.8,1.1,2,2,3.2,2.4
				c0.2,0.1,0.4,0.3,0.7,0.4c4,2.3,8.8,0.7,11.9-2.3C278.9,391.8,279,387,277.5,383.5z"/>
			<path class="st6" d="M262.8,383.3c-1.5-0.1-2.8,1.4-2.9,2.8c-0.1,0.8,0.1,1.5,0.6,2.1c0.3,0.7,0.9,1.3,1.5,1.6
				c0.5,0.2,1.1,0.2,1.5-0.1c0.6-0.5,1.2-0.9,1.8-1.4c0.9-0.7,1-1.5,0.7-2.6C265.6,384.2,264.2,383.4,262.8,383.3z"/>
		</g>
		<path class="st1" d="M321.5,376.2c-16.1-4.1-36.7,6-41.6,22c-2.3,7.5,1.2,15.8,6.9,20.1c3.2,4.9,10.6,5.1,16.1,3.9
			c10.3-2.3,21.4-6.3,29.5-13.3C345.5,397.7,336,380,321.5,376.2z"/>
		<path class="st5" d="M320.7,396c-0.5-0.7-1.5-0.4-1.7,0.4c-0.5,1.9-0.5,3.5-2.6,4.6c-2.7,1.4-5.7-0.9-7.1-3
			c-2.2-3-1.2-7.3-3.3-10.1c-0.1-0.1-0.3-0.1-0.4,0c-0.3,0.4-0.4,0.9-0.6,1.4c-0.3-0.3-0.8-0.4-1.2,0c-0.2,0.1-0.3,0.3-0.4,0.5
			c-0.6-0.3-1.3-0.6-2-0.7c-0.3,0-0.4,0.2-0.3,0.5c1.8,3.4,4.3,5.4,4.8,9.6c0.3,2.7-0.6,5.2-2.7,6.8c-2.5,1.9-4.3-0.4-6-1.8
			c-0.6-0.5-1.7-0.2-1.8,0.6c-0.3,2.8,2.2,4.3,4.6,4.9c2.8,0.7,6.2-1.6,7.4-4.1c0.6-1.3,0.9-2.9,1-4.6c1.1,1.1,2.4,2,3.9,2.5
			C316.5,405,324.1,400.7,320.7,396z"/>
		<path class="st5" d="M308.5,379.3c-5.8-0.7-12.8,3.1-15.1,8.4c-0.3,0.6,0,1.2,0.4,1.4c-0.1,0.8,0,1.6,0.4,2.5
			c1.2,2.4,4.9,3.4,7.3,3.9c3,0.6,5.6-0.9,7.6-3.1c1.1-1.3,1.9-3,2.9-4.5c0.7-1.1,2.2-2.9,2.1-4.3
			C313.8,381,310.8,379.6,308.5,379.3z"/>
		<path class="st4" d="M347.2,356.2c0-0.4-0.6-0.6-0.8-0.2c-2.5,5.2-2.2,12.3-0.5,17.7c0.2,0.5,1,0.4,0.9-0.1
			c-0.2-2.9-0.4-5.8-0.4-8.7C346.4,362,347.1,359.1,347.2,356.2z"/>
		<path class="st4" d="M351.3,365.4c0.1-2.4,1-4.7,1.3-7.2c0.1-0.5-0.6-0.5-0.8-0.2c-2.7,3.8-2.7,9.6-1.4,13.9
			c0.2,0.6,1.1,0.5,1.1-0.1C351.3,369.7,351.2,367.6,351.3,365.4z"/>
		<path class="st4" d="M272.7,401c-4.8-4-10.9-5.3-17-5.6c-0.1,0-0.1,0.1,0,0.1c5.9,0.9,11.2,3.6,16.5,6.2
			C272.6,401.9,273.2,401.3,272.7,401z"/>
		<path class="st4" d="M265.5,403.4c-2.7-2-7.1-2.5-10.4-2c-0.5,0.1-0.5,0.9,0,0.9c1.7,0.2,3.4,0.4,5.1,0.7c1.7,0.3,3.4,0.9,5.1,1.2
			C265.7,404.2,265.8,403.6,265.5,403.4z"/>
	</g>
	<g>
		<path class="st0" d="M337.2,471.6c3-4.3,7.3-7.3,12.5-8.6c5.4-1.3,13.5-2.8,18.6,2.5c4.6,4.8,6.9,11.8,7.7,18.3
			c0.7,5.2-0.3,10.3,0.7,15.5c-0.6,0.2-1.2,0.6-1.3,1.2c0,0.2,0,0.3,0.1,0.4c-8.2-5.1-17.8-3-25-3.9c-6.1-0.7-12.7-3.5-14.9-10.6
			C334,481.1,334.4,475.7,337.2,471.6z"/>
		<path class="st2" d="M364.9,468.7c2.1,0.5,3.7-2.7,1.5-3.7c-0.2-0.1-0.3-0.1-0.5-0.2c0,0,0,0,0,0c0,0,0,0,0,0
			c-0.6-0.2-1.1-0.4-1.7-0.6c0.8,0,1.6,0,2.5,0c0,0,0,0,0,0c-5-3.7-12.2-2.4-17.1-1.2c-5.1,1.3-9.3,4.1-12.2,8.3
			c0.2,0.1,0.5,0.1,0.8,0C347.5,468.9,355.2,466.6,364.9,468.7z"/>
		<path class="st3" d="M368.3,499.1c-0.1-0.1-0.2-0.3-0.3-0.5c0-0.1,0-0.2,0-0.3c0.1-0.2,0.1-0.5-0.1-0.8c-1.4-2.3-2.9-4.6-4.3-6.9
			c-0.5-0.9-0.9-1.9-1.4-2.8c-0.5-1.2-0.7-2.5-1.8-3.4c-0.2-0.2-0.6-0.1-0.7,0.2c-0.1,0.4-0.1,0.9-0.1,1.3c-0.3-0.3-0.8,0.1-0.7,0.5
			c0.2,0.7,0.4,1.5,0.7,2.2c-0.1-0.2-0.3-0.3-0.4-0.5c-0.8-1-2.2,0.4-1.4,1.4c0.2,0.2,0.4,0.5,0.5,0.7c-0.3,0.1-0.6,0.4-0.6,0.7
			c0,0,0,0,0,0c-0.4-0.3-0.8-0.2-1,0.1c-0.1,0-0.2,0.1-0.3,0.1c-0.4-0.2-0.8-0.1-1.1,0.2c0,0,0,0-0.1,0c-0.1-0.1-0.2-0.1-0.3-0.2
			c-0.3-0.1-0.6,0-0.7,0.2c-0.1,0-0.1-0.1-0.2-0.1c-0.4-0.2-0.7,0-0.8,0.4c-0.2-0.2-0.4-0.4-0.7-0.5c-0.5-0.3-1.2,0.2-1,0.8
			c0.1,0.3,0.3,0.6,0.4,0.8c-0.1,0-0.1,0.1-0.2,0.2c-0.1,0-0.1-0.1-0.2-0.1c-0.6-0.3-1,0.2-0.9,0.8c0,0,0,0,0,0
			c-0.5-0.5-1-0.9-1.7-0.9c-0.1,0-0.1,0-0.2,0c-0.1-0.1-0.2-0.2-0.3-0.3c-0.4-0.4-0.9-0.3-1.2,0c-0.4-0.4-0.7-0.7-1.2-0.8
			c-0.4-0.3-0.9-0.5-1.3-0.2c0,0,0,0-0.1,0.1c-0.3-0.3-0.6-0.6-1-0.8c-0.2-0.1-0.4-0.1-0.5,0c-0.3-0.3-0.6-0.6-1-0.8
			c-0.3-0.2-0.6-0.1-0.8,0c-0.4-0.4-0.8-0.8-1.2-1c-0.2-0.1-0.4-0.1-0.5,0c-0.5-0.7-1.2-1.3-1.8-0.6c-0.1,0.1-0.2,0.2-0.2,0.4
			c-0.7-1.2-1.2-2.5-2-3.7c-0.3-0.4-0.9-0.4-1,0.1c-1,3.9,2.7,8.3,6.2,9.8c0.6,0.6,1.3,1,2,1.3c0.7,0.8,1.6,1.4,2.5,1.3c0,0,0,0,0,0
			c0,0,0,0,0.1,0c0.2,0.2,0.5,0.5,0.8,0.6c0.2,0.2,0.5,0.3,0.8,0.2c0.3,0.3,0.7,0.5,1,0.8c0.5,0.3,1,0.1,1.4-0.2
			c0.3,0.1,0.5,0,0.8-0.1c0.5,0.3,1,0,1.3-0.3c0.1,0.1,0.1,0.1,0.2,0.2c0.3,0.3,0.6,0.4,0.8,0.3c0.1,0.1,0.2,0.2,0.2,0.3
			c0.7,0.8,1.7,0.1,1.9-0.6c0,0,0,0,0.1,0c0.1,0.2,0.3,0.3,0.4,0.5c0.5,0.6,1.3,0.3,1.6-0.2c0.3,0.3,0.7,0.3,1,0.2
			c0.1,0.1,0.1,0.2,0.2,0.2l0,0c0.6,0.5,1.5,0.2,1.8-0.4c0.1-0.1,0.3-0.1,0.4-0.2c0.2,0.2,0.4,0.5,0.6,0.7c0.3,0.4,0.8,0.4,1.3,0.2
			c0.5,0.3,1.1,0.1,1.4-0.3c0.5,0.4,1.1,0.1,1.4-0.3c0.5,0.6,1,1.2,1.4,1.8C367.3,501.7,369.2,500.2,368.3,499.1z"/>
		<path class="st4" d="M335.9,493c3.9,4.7,9.3,6.9,14.9,7.3c9.2,0.6,17.1-0.2,27.8,5.2c1,0.5,1.8-0.4,0.9-1.3
			c-1-1.1-2.1-1.9-3.2-2.7c0.4,0.1,0.7,0,1-0.2c0.4,0.4,0.9,0.6,1.3,0.1c4.1-5.2,2.7-15,1-21.8c-1.6-6.1-3.8-13.1-8.7-17.3
			c-10.4-8.9-26.1-3.7-33.3,3.3C331.3,471.6,328.9,484.6,335.9,493z M337.2,471.6c3-4.3,7.3-7.3,12.5-8.6c5.4-1.3,13.5-2.8,18.6,2.5
			c4.6,4.8,6.9,11.8,7.7,18.3c0.7,5.2-0.3,10.3,0.7,15.5c-0.6,0.2-1.2,0.6-1.3,1.2c0,0.2,0,0.3,0.1,0.4c-8.2-5.1-17.8-3-25-3.9
			c-6.1-0.7-12.7-3.5-14.9-10.6C334,481.1,334.4,475.7,337.2,471.6z"/>
		<path class="st0" d="M400.9,471.5c0.3,6-1.4,11.8-3.5,17.3c-2.3,6-6.5,17.7-14.8,14.8c-0.7-0.2-1.4,0.5-1.1,1.2
			c-10.2-1.4-17.4-16.7-19.7-25.4c-3.2-12.5,2.1-27,15.3-30.6C391.2,445.1,400.3,459.7,400.9,471.5z"/>
		<g>
			<path class="st1" d="M370.1,478.8c-1.2,7.2,0.6,15.2,5.9,20.4c2.3,2.2,5.9,3,8.8,2.2c3.9-0.4,7.9-2.9,9.9-5.9
				c3.7-5.6,5.6-13.6,2.7-20C391.4,462,372.6,463.8,370.1,478.8z"/>
			<path class="st1" d="M370.2,462.9c-1.6-1.2-3.8-1.1-5.5,0.3c-0.9,0.8-1.4,2.1-1.5,3.2c0,0.7,0.2,1.3,0.5,1.9
				c0.6,1.2,1.7,2.1,3.1,2.4c0,0,0,0,0,0c0,0,0,0,0,0c0.2,0,0.3,0.1,0.5,0.1c0.1,0,0.1,0,0.2,0c0.4,0,0.7,0,1.1-0.1
				c1.8-0.2,3.3-1.5,3.7-3.3C372.7,465.5,371.8,463.7,370.2,462.9z"/>
			<path class="st1" d="M382.5,456c-0.7-0.9-1.8-1.5-3.1-1.6c-1.4-0.2-3.1,0.6-3.8,1.8c-0.3,0.5-0.5,1.1-0.6,1.6
				c-0.4,1.2-0.4,2.7,0.2,4c1,2.5,3.8,2.4,5.9,1.2c1.2-0.4,2-1.6,2.5-2.7C384.1,458.6,383.6,457,382.5,456z"/>
			<path class="st1" d="M392.8,456.3c-2.4-0.9-4.7,0.6-5.7,2.8c-1.2,2.8,1.5,6.3,4.5,5.7c0.1,0,0.2,0,0.2,0c3,0.3,4.8-3.3,3.7-5.8
				c-0.1-0.2-0.2-0.4-0.4-0.6C394.6,457.4,393.8,456.7,392.8,456.3z"/>
		</g>
		<g>
			<path class="st3" d="M392.6,449.6c-0.2-0.1-0.3-0.1-0.5,0c-0.3-0.2-0.6-0.3-0.9-0.4c-0.6-0.5-1.3-1-2-1.4
				c-0.3-0.2-0.6-0.1-0.8,0.1c0,0,0,0-0.1,0c-1.5-0.9-3.8-2.2-5.6-1.7c-0.2,0.1-0.4,0.3-0.2,0.5c0.8,1.5,2.6,1.9,4,2.6
				c1.6,0.8,3,1.9,4.4,2.9c0.4,0.4,0.8,0.9,1.2,1.3c0.1,0.1,0.1,0.1,0.2,0.2c-0.2,0.1-0.3,0.3-0.2,0.6c0.8,1.5,1.8,3,3,4.5
				c-0.3-0.2-0.6,0.2-0.5,0.5c0.2,0.4,0.4,0.8,0.6,1.2c0,0.1-0.1,0.2,0,0.4c0.1,0.3,0.2,0.6,0.3,0.9c-0.2,0.1-0.2,0.3-0.1,0.5
				c0.2,0.5,0.5,0.9,0.7,1.4c-0.1,0-0.1-0.1-0.2-0.1c-0.3-0.1-0.5,0.2-0.5,0.5c0.1,0.8,0.5,1.4,1,2c0.2,0.4,0.3,0.7,0.5,1.1
				c-0.1,0.1-0.1,0.2-0.1,0.4c0.1,0.7,0.3,1.3,0.7,1.9c0,0,0,0,0,0c0.1,0.4,0.2,0.7,0.4,1.1c-0.1,0-0.2,0-0.3,0.1
				c-0.1-0.1-0.2-0.2-0.3-0.2c-0.2-0.2-0.6,0-0.6,0.3c0,0.9,0.2,1.7,0.6,2.5c-0.3,0-0.7,0.2-0.6,0.6c0,0.2,0.1,0.5,0.2,0.7
				c-0.1,0-0.1-0.1-0.2-0.1c-0.2-0.1-0.5,0.1-0.5,0.3c0,1.3,0.6,2.5,1.2,3.7c-0.1,0.1-0.2,0.2-0.2,0.3c0,0.4,0,0.7,0,1.1
				c-0.2,0.1-0.3,0.3-0.2,0.5c0,0.1,0,0.2,0.1,0.3c-0.3,0-0.7,0.2-0.7,0.6c0,0.2,0,0.4,0.1,0.6c-0.1-0.1-0.1-0.1-0.2-0.2
				c-0.3-0.2-0.7,0.1-0.6,0.4c0.1,0.3,0.2,0.6,0.3,0.9c-0.4-0.3-1,0-0.9,0.5c0.1,0.4,0.2,0.8,0.4,1.2c-0.2,0-0.3,0.1-0.4,0.3
				c-0.1,0.4-0.1,0.9,0,1.5c-0.2,0.1-0.4,0.2-0.3,0.5c0,0.5,0.1,0.9,0.2,1.4c-0.1,0-0.1,0.1-0.2,0.2c-0.2-0.4-0.4-0.8-0.7-1.2
				c-0.3-0.5-1.1-0.2-1,0.4c0.1,0.9,0.3,1.8,0.5,2.8c0,0.1-0.1,0.1-0.1,0.2c0,0,0,0.1,0,0.1c-0.4-0.3-1.1,0.1-1,0.7
				c0.1,0.4,0.1,0.7,0.1,1.1c-0.1,0.1-0.2,0.2-0.2,0.3c0,0.2,0,0.4,0,0.5c0,0-0.1,0-0.1,0.1c-0.1-0.1-0.2-0.2-0.3-0.2
				c-0.2-0.1-0.5,0-0.5,0.2c0,0.1,0,0.2,0,0.2c-0.3-0.1-0.5,0.1-0.6,0.4c0,0.1,0,0.1,0,0.2c-0.4-0.1-0.8,0.2-0.7,0.6
				c0,0.1,0,0.2,0.1,0.3c-0.1,0-0.1-0.1-0.2-0.1c-0.1,0-0.1,0-0.2,0c-0.2-0.3-0.5-0.6-0.8-0.9c-0.5-0.4-1.1,0.1-1.1,0.6
				c-0.1,0.6,0.1,1.2,0.2,1.8c-0.1,0.1-0.2,0.2-0.3,0.3c-0.3,0-0.5,0.2-0.5,0.4c0,0,0,0.1,0,0.1c-0.1-0.2-0.3-0.3-0.5-0.5
				c-0.4-0.3-0.9,0.1-0.9,0.5c-0.1,0.7,0,1.4,0.2,2.1c-0.1,0.1-0.1,0.1-0.2,0.2c0,0,0,0,0,0c-0.1-0.2-0.2-0.4-0.4-0.5
				c-0.3-0.3-0.7-0.3-1,0.1c-0.3,0.5-0.4,1.2-0.3,1.8c-0.3-0.1-0.7,0.1-0.9,0.3c-0.1-0.2-0.2-0.4-0.4-0.7c-0.3-0.4-0.8-0.1-0.9,0.2
				c-0.2,0.4-0.2,0.8-0.1,1.3c-0.1-0.1-0.3-0.2-0.4-0.3c-0.2-0.1-0.4,0.1-0.5,0.3c0,0,0,0.1,0,0.1c-0.1,0-0.2,0-0.3,0
				c-0.3-0.4-0.6-0.8-1-1c-0.3-0.2-0.6,0-0.7,0.3c0,0.1,0,0.2,0,0.3c-0.3,0-0.5,0.3-0.4,0.5c0,0,0,0,0,0.1c-0.2-0.1-0.4-0.2-0.6-0.2
				c-0.1,0-0.1,0-0.1,0c-0.3-0.3-0.6-0.6-0.8-0.9c-0.3-0.3-0.7-0.1-0.8,0.2c0,0-0.1,0-0.1,0.1c-0.3-0.4-0.6-0.7-1-1.1
				c-0.2-0.2-0.5,0.1-0.5,0.3c0,0.1,0,0.1,0.1,0.2c-0.2-0.2-0.3-0.3-0.5-0.4c-1-0.9-2-1.9-3.3-2.4c-0.3-0.1-0.6,0.2-0.4,0.5
				c0.7,1.3,1.9,2.3,3,3.3c0.2,0.2,0.4,0.4,0.6,0.6c0,0.1,0,0.2,0,0.3c0.3,0.5,0.8,0.8,1.2,1.1c0.1,0.1,0.1,0.1,0.2,0.2
				c0.1,0.1,0.2,0.2,0.3,0.3c0.2,0.1,0.4,0.2,0.6,0.1c0.2,0.1,0.3,0.1,0.5,0.1c0,0,0,0,0.1,0c0.3,0.3,0.5,0.6,0.8,0.9l0,0
				c0.1,0.1,0.2,0,0.3,0c0.1,0.2,0.2,0.3,0.4,0.4l0,0c0.2,0.2,0.5,0.2,0.7,0c0.1,0,0.2,0,0.3,0c0.1,0.2,0.2,0.3,0.4,0.5l0,0
				c0.2,0.2,0.5,0.2,0.7,0.2c0,0,0,0,0,0.1c0.2,0.2,0.5,0.3,0.7,0.2c0.1,0.1,0.2,0.1,0.4,0.2c0,0,0,0,0,0.1c0.1,0,0.1,0,0.2-0.1
				c0.3,0.3,0.8,0.2,1,0c0.1,0.1,0.1,0.1,0.2,0.2c0.1,0.1,0.2,0.2,0.3,0.2c1.3-0.8,3-1.1,4.3-1.7c0.8-0.4,1.6-0.8,2.4-1.3
				c0-0.1-0.1-0.2-0.1-0.3c0.1,0.1,0.3,0.1,0.4,0.1c0.3-0.2,0.5-0.3,0.8-0.5c0,0,0,0,0,0c0,0,0,0,0,0c0,0,0,0,0,0c0-0.1,0-0.1,0-0.2
				c0,0,0.1,0,0.1-0.1c0,0,0,0,0,0c0.2-0.2,0.4-0.3,0.6-0.5c0,0,0,0.1,0.1,0.1c0,0,0.1,0.1,0.1,0.1c0.6-0.4,1.2-0.8,1.9-1.2
				c0.1-0.5,0.1-1,0.1-1.5c0,0,0,0.1,0.1,0.1c0.2-0.3,0.4-0.6,0.6-0.9c0.4,0.1,0.8-0.1,0.9-0.7c0,0,0,0,0-0.1
				c0.2-0.1,0.4-0.4,0.3-0.7c0-0.2,0-0.3,0-0.4c0.5,0.1,1-0.2,0.9-0.9c-0.1-0.4-0.1-0.8-0.2-1.2c0.1-0.3,0.2-0.6,0.3-0.9
				c0.3-0.2,0.5-0.4,0.6-0.7c0.3,0,0.5-0.2,0.5-0.6c0-0.3,0-0.7,0-1c0.4,0.1,1-0.1,1.1-0.7c0.1-0.5,0.1-1,0.1-1.5
				c0.3-0.1,0.5-0.3,0.5-0.7c0-0.2,0-0.5,0-0.7c0,0,0,0,0,0c0.4-0.4,0.5-0.8,0.6-1.2c0.1,0,0.2,0,0.3-0.1c0.1-0.1,0.3-0.1,0.4-0.2
				c0.3-0.1,0.5-0.6,0.5-1c0-0.2-0.1-0.4-0.2-0.5c0.4-0.1,0.7-0.3,0.7-0.8c0-0.8-0.2-1.5-0.4-2.3c0.2-0.4,0.3-0.8,0.5-1.2
				c0,0,0,0,0,0c0.7-0.4,0.8-1.5,0.4-2.8c0,0,0,0,0,0c0.1,0.1,0.2,0.1,0.3,0.1c0,0,0.1,0,0.1,0c0,0,0,0,0,0c0.1,0,0.3-0.1,0.3-0.3
				c0-0.6-0.1-1.3-0.3-1.9c0.2-0.1,0.4-0.3,0.4-0.6c-0.1-0.7-0.4-1.3-0.6-2c0.1-0.8,0.1-1.6,0.1-2.3c0.1-0.1,0.1-0.2,0.1-0.3
				c-0.1-0.3-0.2-0.5-0.3-0.7c0,0,0.1,0,0.2,0c0-0.5,0-1-0.1-1.5c-0.3-0.5-0.7-1-1-1.5c0.5-0.1,0.9-0.6,0.6-1.1
				c-0.6-0.9-1.2-1.8-1.8-2.7c0.5,0,1-0.7,0.6-1.2c-0.9-1.3-1.9-2.6-2.9-3.9c0.3,0.2,0.5,0.5,0.8,0.7c0,0,0,0,0,0
				c0.4,0.2,1-0.1,0.9-0.6c-0.3-0.8-0.7-1.6-1.2-2.4c0-0.2,0-0.4-0.1-0.6C396.5,453.8,394.8,451.4,392.6,449.6z"/>
		</g>
		<path class="st2" d="M365.2,469.3c1.8-8.8,8-15.9,15.2-21c-1,0.1-2,0.3-3.1,0.5c-13.2,3.6-18.5,18.1-15.3,30.6
			c1.2,4.6,3.8,11.1,7.5,16.4C366.2,487.3,363.2,479,365.2,469.3z"/>
		<path class="st4" d="M379.4,445.4c-16.9,2.2-23.5,19.7-20.3,34.7c2.2,10.1,13.5,30.8,26.2,27.7c3.2,0.4,7-2.5,9-5.1
			c5.4-7.2,8.8-17.5,9.8-26.3C405.8,462,396.2,443.2,379.4,445.4z M400.9,471.5c0.3,6-1.4,11.8-3.5,17.3c-2.3,6-6.5,17.7-14.8,14.8
			c-0.7-0.2-1.4,0.5-1.1,1.2c-10.2-1.4-17.4-16.7-19.7-25.4c-3.2-12.5,2.1-27,15.3-30.6C391.2,445.1,400.3,459.7,400.9,471.5z"/>
	</g>
	<g>
		<path class="st0" d="M290.5,488.9c-1.5,7.3-7.9,10.6-13.8,11.9c-7.1,1.5-16.9,0.4-24.6,6.2c0.1-0.1,0.1-0.3,0.1-0.4
			c-0.1-0.6-0.8-0.9-1.4-1.1c0.5-5.2-0.9-10.3-0.7-15.5c0.3-6.5,1.9-13.7,6-18.9c4.5-5.7,12.8-5,18.3-4.1c5.3,0.8,9.8,3.4,13.2,7.4
			C290.7,478.1,291.6,483.5,290.5,488.9z"/>
		<path class="st2" d="M290.8,477.8c0.8-0.6,1.3-1.7,0.7-2.6c-2.2-3.2-5.5-5.2-9.1-6.2c-4.6-2.5-10.1-3.8-14.7-4.2
			c-2.1-0.2-2.5,3.2-0.5,3.6c1,0.2,2,0.5,3,0.7c-1.1,0.1-2.2,0.4-3.1,0.9c-0.7,0.4-0.7,1.5,0,1.8c3,1.5,6.8,1.1,10.1,2
			c4.7,1.2,8.3,4.1,12.5,6.3c1,0.5,2.4-0.6,1.6-1.6C291.2,478.2,291,478,290.8,477.8z"/>
		<path class="st3" d="M289.4,492.3c-0.1-0.1-0.1-0.3-0.3-0.3c0.1-0.8-1-1.5-1.5-0.6c0,0.1-0.1,0.1-0.1,0.2c-0.2,0-0.4,0.1-0.6,0.3
			c-0.2,0.2-0.3,0.5-0.5,0.7c-0.2-0.1-0.6-0.2-0.8,0c-0.3,0.3-0.5,0.6-0.8,0.9c0-0.1,0-0.2,0-0.4c0-0.4-0.5-0.7-0.9-0.5
			c-0.4,0.2-0.7,0.6-1,0.9c-0.1-0.1-0.3-0.1-0.5-0.1c-0.1-0.4-0.5-0.6-0.9-0.4c-0.5,0.3-0.8,0.7-1.2,1.1c-0.1,0-0.2,0-0.2,0
			c0-0.2,0-0.3,0-0.5c0-0.5-0.5-0.8-1-0.5c-0.4,0.2-0.7,0.5-0.9,0.9c0.1-0.4,0.1-0.8,0.1-1.1c0-0.5-0.8-0.9-1.1-0.5
			c-0.3,0.3-0.5,0.7-0.7,1c-0.2-0.3-0.7-0.3-1,0c-0.2,0.2-0.7,0.8-1.2,1.7c0-0.1,0-0.2,0.1-0.3c0-0.6-0.7-0.9-1.1-0.5
			c-0.6,0.7-1.1,1.3-1.5,2c0.1-0.3,0.1-0.6,0.1-0.9c0-0.6-0.7-0.8-1.1-0.5c-0.5,0.5-0.9,1.1-1.3,1.7c0,0,0,0,0-0.1
			c0-0.5-0.7-0.9-1.1-0.5c-0.2,0.2-0.4,0.5-0.6,0.8c0-0.4,0-0.9-0.2-1.3c-0.1-0.4-0.6-0.5-0.9-0.2c-0.9,0.8-1.3,1.8-1.8,2.8
			c-0.7,1.3-1.5,2.5-2.4,3.7c-0.7,0.9,0,2,0.9,2c0.1,0.5,0.6,0.9,1.2,0.6c0.2-0.1,0.4-0.2,0.5-0.3c0.2,0.4,0.7,0.7,1.2,0.3
			c0.3-0.2,0.6-0.5,0.9-0.8c0.2,0.5,0.8,0.9,1.5,0.5c0.9-0.6,1.7-1.4,2.5-2.3c0.5,0.4,1.2,0.4,1.7,0c0.1-0.1,0.2-0.2,0.3-0.3
			c0,0,0,0,0,0c0,0.4,0.3,0.9,0.9,0.9c0.7,0.1,1.4-0.1,2.1-0.5c0.6-0.1,1-0.4,1.4-0.7c0.1-0.1,0.2-0.2,0.3-0.2c0.1,0,0.1,0,0.2,0
			c0.4,0,0.8-0.1,1.1-0.3c0.2,0.5,1.1,0.8,1.4,0.3c0.3-0.3,0.5-0.7,0.7-1c0,0,0,0.1,0.1,0.1c0.2,0.3,0.6,0.3,0.9,0.2
			c0.7-0.1,1.2-0.7,1.6-1.3c0.4,0.1,0.8,0,1.1-0.4c0.3-0.4,0.5-0.7,0.7-1.1c0.4,0.1,0.8,0,1.1-0.4c0.3-0.4,0.5-0.9,0.7-1.3
			c0.5,0.1,1-0.1,1.2-0.7c0.1-0.3,0.2-0.6,0.2-0.9c0.3-0.1,0.5-0.3,0.6-0.6c0.1-0.2,0.1-0.3,0.2-0.5
			C290,492.8,289.7,492.4,289.4,492.3z"/>
		<path class="st4" d="M286.6,468.4c-7.8-6.3-23.9-10-33.4-0.2c-4.6,4.7-6.1,11.8-7.1,18c-1.1,6.9-1.6,16.8,2.9,21.6
			c0.4,0.4,0.9,0.2,1.3-0.2c0.4,0.1,0.7,0.2,1.1,0.1c-1,0.9-2,1.8-2.9,3c-0.8,1,0.1,1.8,1,1.2c10.1-6.4,18.1-6.3,27.2-7.7
			c5.5-0.9,10.6-3.6,14.1-8.6C297,486.5,293.4,473.8,286.6,468.4z M290.5,488.9c-1.5,7.3-7.9,10.6-13.8,11.9
			c-7.1,1.5-16.9,0.4-24.6,6.2c0.1-0.1,0.1-0.3,0.1-0.4c-0.1-0.6-0.8-0.9-1.4-1.1c0.5-5.2-0.9-10.3-0.7-15.5
			c0.3-6.5,1.9-13.7,6-18.9c4.5-5.7,12.8-5,18.3-4.1c5.3,0.8,9.8,3.4,13.2,7.4C290.7,478.1,291.6,483.5,290.5,488.9z"/>
		<path class="st0" d="M257,455.8c12.7,5.3,16,20.4,11.2,32.3c-3.4,8.4-12.6,22.6-22.8,22.6c0.4-0.6-0.2-1.5-0.9-1.3
			c-8.6,1.8-11.2-10.4-12.7-16.6c-1.4-5.7-2.2-11.8-1.2-17.6C232.7,463.6,243.7,450.3,257,455.8z"/>
		<g>
			<path class="st1" d="M233.5,479.5c-3.7,6-2.9,14.2,0,20.2c1.6,3.2,5.2,6.2,9,7.1c2.8,1.2,6.5,0.9,9.1-1c6-4.4,8.8-12.1,8.5-19.4
				C259.6,471.2,241.3,467,233.5,479.5z"/>
			<path class="st1" d="M262.2,470.6c1.7-1,3.9-0.6,5.4,1c0.8,0.9,1.2,2.2,1,3.4c-0.1,0.7-0.3,1.3-0.7,1.8c-0.7,1.1-2,1.9-3.3,2
				c0,0,0,0,0,0c0,0,0,0,0,0c-0.2,0-0.3,0-0.5,0c-0.1,0-0.1,0-0.2,0c-0.4,0-0.7-0.1-1.1-0.2c-1.7-0.4-3.1-1.9-3.2-3.8
				C259.3,472.9,260.5,471.3,262.2,470.6z"/>
			<path class="st1" d="M250.9,462.2c0.9-0.8,2-1.2,3.3-1.2c1.4,0,3,1,3.6,2.3c0.3,0.6,0.3,1.1,0.3,1.7c0.2,1.3,0,2.7-0.7,3.9
				c-1.4,2.3-4.1,1.9-6,0.4c-1.1-0.6-1.8-1.8-2.1-3C248.9,464.6,249.7,463.1,250.9,462.2z"/>
			<path class="st1" d="M240.7,461.1c2.5-0.6,4.6,1.2,5.3,3.6c0.8,2.9-2.3,6.1-5.2,5.1c-0.1,0-0.2,0-0.2,0c-3-0.1-4.3-3.9-2.9-6.3
				c0.1-0.2,0.3-0.4,0.5-0.6C238.7,462.1,239.6,461.4,240.7,461.1z"/>
		</g>
		<g>
			<path class="st3" d="M250.9,510.7c0.8-0.3,1.7-0.8,2.6-1.4c0,0,0,0,0,0c0.4,0,0.9-0.1,1.3-0.1c0.8-0.7,1.7-1.3,2.5-2
				c-0.4,0-0.9,0-1.3,0c0.2-0.2,0.4-0.4,0.5-0.7c2.3-1.8,4.2-4.2,4.9-6.7c0.2-0.6-0.4-1-0.9-0.6c-1.8,1.4-3.3,3.2-4.9,4.7
				c-0.1,0-0.1-0.1-0.2-0.1c-0.7,0.1-1.3,0.4-1.8,0.7c-0.5,0-1.1,0.1-1.6,0.3c0.2-0.4-0.2-0.9-0.6-0.8c-0.6,0.1-1.2,0.3-1.8,0.5
				c-1.4-0.1-2.9-0.1-4.4,0c0,0,0,0,0.1,0c0.3-0.3,0.1-0.7-0.3-0.8c-0.1,0-0.2,0-0.3,0c0.1-0.1,0.2-0.1,0.4-0.2
				c0.4-0.2,0.4-0.8,0-0.9c-0.9-0.3-1.8-0.4-2.8-0.4c-0.1-0.2-0.2-0.3-0.4-0.4c-0.4-0.1-0.8-0.1-1.3-0.1c0.1-0.3-0.1-0.5-0.4-0.5
				c-0.5-0.1-0.9,0-1.4,0c1.5-0.3,3-0.6,4.5-1.2c0.4-0.2,0.2-0.7-0.1-0.7c-1.1-0.1-2.1-0.1-3.2-0.1c0.1-0.1,0.2-0.3,0.2-0.4
				c0.1-0.2,0-0.4-0.2-0.5c-0.1-0.1-0.2-0.1-0.3-0.2c0.3-0.1,0.6-0.2,0.8-0.4c0.5-0.3,0.4-0.9-0.2-1c-0.4-0.1-0.7-0.1-1.1-0.1
				c0-0.1,0-0.1-0.1-0.2c0,0,0.1-0.1,0.1-0.1c0.1-0.2,0.1-0.5-0.2-0.6c-0.4-0.1-0.9-0.1-1.3-0.1c0.7-0.2,1.4-0.5,2.1-0.8
				c0.3-0.1,0.2-0.6-0.1-0.7c-1-0.1-1.9,0-2.9,0.1c-0.2-0.1-0.4-0.2-0.7-0.3c0,0,0,0,0-0.1c0-0.1-0.1-0.2-0.2-0.3c0,0,0,0,0,0
				c0,0,0,0,0,0c0,0,0,0,0,0c0,0-0.1,0-0.1,0c-0.1,0-0.3-0.1-0.4-0.1c0.1-0.1,0.2-0.2,0.3-0.3c0.3-0.1,0.5-0.2,0.7-0.3
				c0.4-0.2,0.4-0.8,0-0.9c-0.4-0.1-0.9-0.2-1.3-0.2c0,0,0-0.1,0-0.1c0-0.1,0-0.3-0.1-0.4c-0.3-0.3-0.6-0.4-0.9-0.4
				c0.2-0.1,0.3-0.1,0.5-0.2c0.2-0.1,0.2-0.3,0.1-0.4c0.2-0.1,0.4-0.1,0.5-0.2c0.4-0.2,0.3-0.8-0.2-0.9c-0.3-0.1-0.7-0.1-1-0.1
				c0-0.1,0-0.3-0.2-0.4c-0.1-0.1-0.3-0.2-0.4-0.2c0.2-0.2,0-0.7-0.4-0.6c-0.1,0-0.2,0.1-0.3,0.1c0,0-0.1-0.1-0.1-0.1
				c0.1-0.1,0.3-0.1,0.4-0.2c0.6-0.4,0.1-1.2-0.4-1.2c0.2-0.1,0.3-0.1,0.5-0.2c0.1,0,0.2-0.1,0.2-0.2c0.3-0.1,0.6-0.2,0.9-0.3
				c0.3-0.1,0.3-0.6,0-0.7c-0.4-0.2-0.9-0.3-1.3-0.3c-0.1-0.1-0.2-0.3-0.4-0.2c-0.1,0-0.2,0-0.3,0c0.3-0.1,0.3-0.5,0.1-0.7
				c0.1-0.1,0.2-0.4,0.1-0.5c-0.2-0.2-0.4-0.4-0.6-0.5c0.3-0.2,0.7-0.4,0.9-0.7c0.3-0.4,0-0.8-0.3-1c0,0,0-0.1,0-0.1
				c0-0.1,0-0.2,0-0.3c0.2-0.1,0.4-0.1,0.7-0.2c0.3-0.1,0.3-0.6,0-0.7c-0.2-0.1-0.4-0.1-0.5-0.1c0-0.3-0.2-0.7-0.5-0.8
				c0,0-0.1,0-0.1,0c0.1-0.2,0-0.5-0.2-0.6c0,0,0.1,0,0.1,0c0.1,0,0.2,0,0.3-0.1c0.2-0.1,0.3-0.4,0.2-0.6c0-0.1,0-0.2,0-0.2
				c-0.2-0.4-0.6-0.5-0.9-0.6c0.3-0.1,0.6-0.3,0.9-0.6c0.2-0.2,0.2-0.7,0-0.9c-0.1-0.1-0.2-0.2-0.3-0.3c0.1-0.2,0.1-0.4-0.1-0.6
				c0,0,0,0-0.1-0.1c0,0,0,0,0,0c0.2-0.2,0.3-0.6,0-0.9c0.1-0.2,0.2-0.4,0.1-0.7c-0.2-0.5-0.8-0.9-1.3-1c-0.9-0.2-1.4,0.8-0.8,1.4
				c-0.3,0.1-0.6,0.3-0.7,0.6c-0.1,0.2-0.1,0.4,0,0.6c0,0.2,0,0.3,0.2,0.5c-0.2,0-0.4,0.1-0.6,0.2l0,0c-0.4,0.2-0.6,0.7-0.5,1.1
				c-0.1,0.1-0.1,0.3-0.1,0.4c-0.1,0-0.1,0.1-0.2,0.1c0,0.5,0,1,0,1.5c0.3,0.1,0.6,0.1,0.8,0.1c0,0.1,0,0.1,0,0.2
				c-0.5,0.2-0.8,0.9-0.6,1.4c-0.1,0-0.2,0-0.2,0c0,0.5,0,0.9,0,1.4c0.1,0,0.3,0,0.4,0c0,0,0,0.1-0.1,0.1c-0.1,0.4-0.1,0.7,0.1,1
				c-0.6,0.6-0.4,1.7,0.5,2c0,0.2-0.1,0.3,0,0.5c-0.1,0-0.1,0-0.2,0c0.1,0.5,0.2,0.9,0.3,1.4c0,0,0,0,0,0c-0.4,0.5-0.3,1.3,0.3,1.8
				c0,0.2,0.1,0.4,0.1,0.5c-0.6,0.5-0.6,1.7,0.3,2c0,0.3,0.1,0.5,0.1,0.8c-0.3,0.4-0.3,1-0.1,1.4c-0.2,0.5-0.1,1.2,0.4,1.5
				c-0.1,0.3,0,0.7,0.1,1c-0.2,0.5,0,1.2,0.5,1.5c0,0.2,0.1,0.3,0.1,0.5c0.1,0,0.2,0,0.3,0c-0.3,0.5-0.2,1.2,0.3,1.5
				c0,0.1-0.1,0.1-0.1,0.2c0.1,0.3,0.2,0.6,0.3,0.9c0.1,0,0.1,0,0.2,0c0.1,0,0.3,0,0.4,0c0,0,0,0,0,0c-0.2,0.1-0.4,0.1-0.5,0.2
				c0.1,0.2,0.1,0.4,0.2,0.5c-0.1,0.4,0.1,0.8,0.4,1c0.1,0.2,0.2,0.4,0.2,0.6c0.1,0,0.2,0,0.3,0c-0.2,0.4-0.1,0.9,0.2,1.1
				c0.3,0.6,0.6,1.3,0.9,1.9c0,0,0,0,0,0c0,0.1,0.1,0.2,0.1,0.3c0,0,0,0,0,0c0.4,0.9,0.9,1.7,1.4,2.5c0.2,0,0.4,0,0.6,0
				c0.1,0.1,0.1,0.2,0.2,0.2c-0.2,0.1-0.4,0.1-0.6,0.2c0,0,0,0,0,0c0,0,0.1,0.1,0.1,0.1c0.1,0,0.2,0,0.3,0.1
				c0.9,0.5,1.8,1.1,2.7,1.6c0.9,1,2.2,1.6,3.5,1.8c0.9,0.4,1.8,0.8,2.7,1c0.2,0.1,0.4,0.1,0.5,0.1c1.6,0,3.2-0.1,4.7-0.3
				c0.4-0.2,0.8-0.4,1.1-0.6c0.5-0.3,1-0.7,1.5-1c0.2-0.2,0.4-0.4,0.6-0.6C252.4,510.6,251.7,510.6,250.9,510.7z"/>
		</g>
		<path class="st2" d="M263.6,496.8c2-3.1,3.5-6.1,4.5-8.7c4.8-12,1.5-27.1-11.2-32.3c-9-3.8-17.1,1.2-21.9,8.5
			c3.4-2.7,6.9-5,11.3-5.8c6.2-1.2,11.9,2.8,15.4,7.5C268.3,474.6,266.2,486.7,263.6,496.8z"/>
		<path class="st4" d="M226.8,479.5c-0.1,8.9,1.8,19.5,6.3,27.4c1.6,2.8,5,6.2,8.2,6.2c12.2,4.8,26.2-14.2,29.6-24
			c5.1-14.5,0.9-32.7-15.6-37C239,447.8,227,465.1,226.8,479.5z M257,455.8c12.7,5.3,16,20.4,11.2,32.3
			c-3.4,8.4-12.6,22.6-22.8,22.6c0.4-0.6-0.2-1.5-0.9-1.3c-8.6,1.8-11.2-10.4-12.7-16.6c-1.4-5.7-2.2-11.8-1.2-17.6
			C232.7,463.6,243.7,450.3,257,455.8z"/>
	</g>
</g>
</svg>
